<svg xmlns="http://www.w3.org/2000/svg" width="220" height="120" viewBox="0 0 220 120" role="img" aria-label="easeInBack easing curve">
  <rect x="12.0" y="18.6" width="196.0" height="75.2" fill="none" stroke="#9ca3af" stroke-width="1" stroke-dasharray="3 3" opacity="0.7"/>
  <line x1="12.0" y1="93.9" x2="208.0" y2="93.9" stroke="#9ca3af" stroke-width="1" opacity="0.5"/>
  <polyline points="12.00,93.86 13.22,93.86 14.45,93.88 15.68,93.90 16.90,93.93 18.12,93.97 19.35,94.02 20.57,94.08 21.80,94.15 23.02,94.22 24.25,94.31 25.48,94.39 26.70,94.49 27.93,94.59 29.15,94.70 30.38,94.81 31.60,94.93 32.83,95.06 34.05,95.19 35.27,95.32 36.50,95.46 37.73,95.60 38.95,95.75 40.17,95.90 41.40,96.05 42.62,96.21 43.85,96.36 45.08,96.52 46.30,96.69 47.52,96.85 48.75,97.02 49.98,97.18 51.20,97.35 52.42,97.52 53.65,97.69 54.88,97.85 56.10,98.02 57.33,98.19 58.55,98.35 59.77,98.52 61.00,98.68 62.22,98.84 63.45,99.00 64.67,99.16 65.90,99.31 67.12,99.46 68.35,99.61 69.58,99.75 70.80,99.89 72.03,100.02 73.25,100.15 74.47,100.28 75.70,100.40 76.92,100.52 78.15,100.62 79.38,100.73 80.60,100.82 81.83,100.91 83.05,101.00 84.28,101.07 85.50,101.14 86.72,101.20 87.95,101.25 89.17,101.30 90.40,101.33 91.62,101.36 92.85,101.37 94.08,101.38 95.30,101.38 96.53,101.36 97.75,101.34 98.97,101.30 100.20,101.26 101.42,101.20 102.65,101.13 103.88,101.05 105.10,100.96 106.33,100.85 107.55,100.73 108.78,100.60 110.00,100.45 111.22,100.29 112.45,100.12 113.68,99.93 114.90,99.73 116.12,99.51 117.35,99.28 118.57,99.03 119.80,98.76 121.03,98.48 122.25,98.19 123.47,97.87 124.70,97.54 125.93,97.19 127.15,96.83 128.38,96.44 129.60,96.04 130.82,95.62 132.05,95.18 133.28,94.72 134.50,94.24 135.72,93.74 136.95,93.22 138.18,92.68 139.40,92.12 140.62,91.54 141.85,90.94 143.07,90.32 144.30,89.67 145.53,89.01 146.75,88.32 147.97,87.60 149.20,86.87 150.43,86.11 151.65,85.33 152.88,84.52 154.10,83.69 155.32,82.83 156.55,81.95 157.78,81.05 159.00,80.12 160.22,79.16 161.45,78.18 162.68,77.17 163.90,76.14 165.12,75.07 166.35,73.98 167.57,72.87 168.80,71.72 170.03,70.55 171.25,69.35 172.47,68.12 173.70,66.86 174.93,65.57 176.15,64.25 177.38,62.90 178.60,61.53 179.82,60.12 181.05,58.68 182.28,57.21 183.50,55.71 184.72,54.17 185.95,52.61 187.18,51.01 188.40,49.38 189.62,47.72 190.85,46.02 192.07,44.29 193.30,42.53 194.53,40.73 195.75,38.90 196.97,37.03 198.20,35.13 199.43,33.19 200.65,31.22 201.88,29.21 203.10,27.17 204.32,25.08 205.55,22.97 206.78,20.81 208.00,18.62" fill="none" stroke="#3b82f6" stroke-width="2.2" stroke-linejoin="round" stroke-linecap="round"/>
  <circle cx="12.0" cy="93.9" r="2.6" fill="#ef4444"/>
  <circle cx="208.0" cy="18.6" r="2.6" fill="#ef4444"/>
</svg>
