<svg xmlns="http://www.w3.org/2000/svg" width="220" height="120" viewBox="0 0 220 120" role="img" aria-label="easeInOutBack easing curve">
  <rect x="12.0" y="25.5" width="196.0" height="69.0" fill="none" stroke="#9ca3af" stroke-width="1" stroke-dasharray="3 3" opacity="0.7"/>
  <line x1="12.0" y1="94.5" x2="208.0" y2="94.5" stroke="#9ca3af" stroke-width="1" opacity="0.5"/>
  <polyline points="12.00,94.48 13.22,94.49 14.45,94.53 15.68,94.60 16.90,94.69 18.12,94.80 19.35,94.93 20.57,95.08 21.80,95.25 23.02,95.43 24.25,95.63 25.48,95.85 26.70,96.07 27.93,96.31 29.15,96.55 30.38,96.81 31.60,97.06 32.83,97.33 34.05,97.59 35.27,97.86 36.50,98.13 37.73,98.40 38.95,98.67 40.17,98.93 41.40,99.18 42.62,99.43 43.85,99.67 45.08,99.90 46.30,100.12 47.52,100.33 48.75,100.52 49.98,100.70 51.20,100.86 52.42,101.00 53.65,101.12 54.88,101.22 56.10,101.30 57.33,101.35 58.55,101.38 59.77,101.38 61.00,101.35 62.22,101.29 63.45,101.20 64.67,101.08 65.90,100.92 67.12,100.73 68.35,100.49 69.58,100.22 70.80,99.91 72.03,99.56 73.25,99.16 74.47,98.72 75.70,98.24 76.92,97.70 78.15,97.12 79.38,96.49 80.60,95.80 81.83,95.06 83.05,94.27 84.28,93.42 85.50,92.51 86.72,91.55 87.95,90.52 89.17,89.43 90.40,88.28 91.62,87.06 92.85,85.77 94.08,84.42 95.30,83.00 96.53,81.51 97.75,79.94 98.97,78.30 100.20,76.59 101.42,74.80 102.65,72.93 103.88,70.98 105.10,68.95 106.33,66.84 107.55,64.65 108.78,62.37 110.00,60.00 111.22,57.63 112.45,55.35 113.68,53.16 114.90,51.05 116.12,49.02 117.35,47.07 118.57,45.20 119.80,43.41 121.03,41.70 122.25,40.06 123.47,38.49 124.70,37.00 125.93,35.58 127.15,34.23 128.38,32.94 129.60,31.72 130.82,30.57 132.05,29.48 133.28,28.45 134.50,27.49 135.72,26.58 136.95,25.73 138.18,24.94 139.40,24.20 140.62,23.51 141.85,22.88 143.07,22.30 144.30,21.76 145.53,21.28 146.75,20.84 147.97,20.44 149.20,20.09 150.43,19.78 151.65,19.51 152.88,19.27 154.10,19.08 155.32,18.92 156.55,18.80 157.78,18.71 159.00,18.65 160.22,18.62 161.45,18.62 162.68,18.65 163.90,18.70 165.12,18.78 166.35,18.88 167.57,19.00 168.80,19.14 170.03,19.30 171.25,19.48 172.47,19.67 173.70,19.88 174.93,20.10 176.15,20.33 177.38,20.57 178.60,20.82 179.82,21.07 181.05,21.33 182.28,21.60 183.50,21.87 184.72,22.14 185.95,22.41 187.18,22.67 188.40,22.94 189.62,23.19 190.85,23.45 192.07,23.69 193.30,23.93 194.53,24.15 195.75,24.37 196.97,24.57 198.20,24.75 199.43,24.92 200.65,25.07 201.88,25.20 203.10,25.31 204.32,25.40 205.55,25.47 206.78,25.51 208.00,25.52" fill="none" stroke="#3b82f6" stroke-width="2.2" stroke-linejoin="round" stroke-linecap="round"/>
  <circle cx="12.0" cy="94.5" r="2.6" fill="#ef4444"/>
  <circle cx="208.0" cy="25.5" r="2.6" fill="#ef4444"/>
</svg>
