<svg xmlns="http://www.w3.org/2000/svg" width="220" height="120" viewBox="0 0 220 120" role="img" aria-label="easeInSine easing curve">
  <rect x="12.0" y="18.6" width="196.0" height="82.8" fill="none" stroke="#9ca3af" stroke-width="1" stroke-dasharray="3 3" opacity="0.7"/>
  <line x1="12.0" y1="101.4" x2="208.0" y2="101.4" stroke="#9ca3af" stroke-width="1" opacity="0.5"/>
  <polyline points="12.00,101.38 13.22,101.38 14.45,101.36 15.68,101.34 16.90,101.32 18.12,101.28 19.35,101.24 20.57,101.18 21.80,101.12 23.02,101.06 24.25,100.98 25.48,100.90 26.70,100.81 27.93,100.71 29.15,100.60 30.38,100.48 31.60,100.36 32.83,100.23 34.05,100.09 35.27,99.94 36.50,99.79 37.73,99.63 38.95,99.46 40.17,99.28 41.40,99.09 42.62,98.90 43.85,98.70 45.08,98.49 46.30,98.27 47.52,98.05 48.75,97.82 49.98,97.58 51.20,97.33 52.42,97.07 53.65,96.81 54.88,96.54 56.10,96.26 57.33,95.98 58.55,95.69 59.77,95.39 61.00,95.08 62.22,94.77 63.45,94.44 64.67,94.11 65.90,93.78 67.12,93.43 68.35,93.08 69.58,92.72 70.80,92.36 72.03,91.99 73.25,91.61 74.47,91.22 75.70,90.83 76.92,90.43 78.15,90.02 79.38,89.61 80.60,89.18 81.83,88.76 83.05,88.32 84.28,87.88 85.50,87.43 86.72,86.98 87.95,86.52 89.17,86.05 90.40,85.57 91.62,85.09 92.85,84.61 94.08,84.11 95.30,83.61 96.53,83.11 97.75,82.59 98.97,82.08 100.20,81.55 101.42,81.02 102.65,80.48 103.88,79.94 105.10,79.39 106.33,78.84 107.55,78.28 108.78,77.71 110.00,77.14 111.22,76.56 112.45,75.98 113.68,75.39 114.90,74.80 116.12,74.20 117.35,73.59 118.57,72.98 119.80,72.37 121.03,71.75 122.25,71.12 123.47,70.49 124.70,69.86 125.93,69.22 127.15,68.57 128.38,67.92 129.60,67.26 130.82,66.61 132.05,65.94 133.28,65.27 134.50,64.60 135.72,63.92 136.95,63.24 138.18,62.55 139.40,61.86 140.62,61.17 141.85,60.47 143.07,59.77 144.30,59.06 145.53,58.35 146.75,57.63 147.97,56.91 149.20,56.19 150.43,55.47 151.65,54.74 152.88,54.00 154.10,53.27 155.32,52.53 156.55,51.79 157.78,51.04 159.00,50.29 160.22,49.54 161.45,48.78 162.68,48.03 163.90,47.26 165.12,46.50 166.35,45.73 167.57,44.97 168.80,44.19 170.03,43.42 171.25,42.64 172.47,41.87 173.70,41.08 174.93,40.30 176.15,39.52 177.38,38.73 178.60,37.94 179.82,37.15 181.05,36.36 182.28,35.56 183.50,34.77 184.72,33.97 185.95,33.17 187.18,32.37 188.40,31.57 189.62,30.76 190.85,29.96 192.07,29.15 193.30,28.35 194.53,27.54 195.75,26.73 196.97,25.92 198.20,25.11 199.43,24.30 200.65,23.49 201.88,22.68 203.10,21.87 204.32,21.06 205.55,20.25 206.78,19.43 208.00,18.62" fill="none" stroke="#3b82f6" stroke-width="2.2" stroke-linejoin="round" stroke-linecap="round"/>
  <circle cx="12.0" cy="101.4" r="2.6" fill="#ef4444"/>
  <circle cx="208.0" cy="18.6" r="2.6" fill="#ef4444"/>
</svg>
