<svg xmlns="http://www.w3.org/2000/svg" width="220" height="120" viewBox="0 0 220 120" role="img" aria-label="easeInBounce easing curve">
  <rect x="12.0" y="18.6" width="196.0" height="82.8" fill="none" stroke="#9ca3af" stroke-width="1" stroke-dasharray="3 3" opacity="0.7"/>
  <line x1="12.0" y1="101.4" x2="208.0" y2="101.4" stroke="#9ca3af" stroke-width="1" opacity="0.5"/>
  <polyline points="12.00,101.38 13.22,101.05 14.45,100.77 15.68,100.53 16.90,100.35 18.12,100.21 19.35,100.13 20.57,100.09 21.80,100.10 23.02,100.16 24.25,100.27 25.48,100.43 26.70,100.63 27.93,100.89 29.15,101.19 30.38,101.06 31.60,100.40 32.83,99.78 34.05,99.21 35.27,98.70 36.50,98.23 37.73,97.81 38.95,97.44 40.17,97.11 41.40,96.84 42.62,96.62 43.85,96.44 45.08,96.31 46.30,96.24 47.52,96.21 48.75,96.23 49.98,96.30 51.20,96.41 52.42,96.58 53.65,96.80 54.88,97.06 56.10,97.37 57.33,97.74 58.55,98.15 59.77,98.61 61.00,99.12 62.22,99.67 63.45,100.28 64.67,100.94 65.90,100.87 67.12,99.49 68.35,98.15 69.58,96.87 70.80,95.64 72.03,94.45 73.25,93.32 74.47,92.23 75.70,91.19 76.92,90.20 78.15,89.26 79.38,88.37 80.60,87.53 81.83,86.74 83.05,85.99 84.28,85.30 85.50,84.65 86.72,84.05 87.95,83.50 89.17,83.00 90.40,82.55 91.62,82.15 92.85,81.80 94.08,81.49 95.30,81.24 96.53,81.03 97.75,80.87 98.97,80.76 100.20,80.70 101.42,80.69 102.65,80.73 103.88,80.82 105.10,80.95 106.33,81.14 107.55,81.37 108.78,81.65 110.00,81.98 111.22,82.36 112.45,82.79 113.68,83.27 114.90,83.80 116.12,84.37 117.35,85.00 118.57,85.67 119.80,86.39 121.03,87.16 122.25,87.98 123.47,88.85 124.70,89.77 125.93,90.74 127.15,91.75 128.38,92.82 129.60,93.93 130.82,95.09 132.05,96.30 133.28,97.56 134.50,98.87 135.72,100.23 136.95,100.86 138.18,98.05 139.40,95.29 140.62,92.58 141.85,89.91 143.07,87.29 144.30,84.73 145.53,82.21 146.75,79.74 147.97,77.32 149.20,74.95 150.43,72.63 151.65,70.35 152.88,68.13 154.10,65.95 155.32,63.82 156.55,61.75 157.78,59.72 159.00,57.74 160.22,55.81 161.45,53.92 162.68,52.09 163.90,50.30 165.12,48.57 166.35,46.88 167.57,45.24 168.80,43.66 170.03,42.11 171.25,40.62 172.47,39.18 173.70,37.79 174.93,36.44 176.15,35.15 177.38,33.90 178.60,32.70 179.82,31.55 181.05,30.45 182.28,29.40 183.50,28.40 184.72,27.45 185.95,26.54 187.18,25.69 188.40,24.88 189.62,24.12 190.85,23.41 192.07,22.75 193.30,22.14 194.53,21.58 195.75,21.07 196.97,20.60 198.20,20.19 199.43,19.82 200.65,19.50 201.88,19.23 203.10,19.01 204.32,18.84 205.55,18.72 206.78,18.65 208.00,18.62" fill="none" stroke="#3b82f6" stroke-width="2.2" stroke-linejoin="round" stroke-linecap="round"/>
  <circle cx="12.0" cy="101.4" r="2.6" fill="#ef4444"/>
  <circle cx="208.0" cy="18.6" r="2.6" fill="#ef4444"/>
</svg>
