<svg xmlns="http://www.w3.org/2000/svg" width="220" height="120" viewBox="0 0 220 120" role="img" aria-label="easeInElastic easing curve">
  <rect x="12.0" y="18.6" width="196.0" height="60.3" fill="none" stroke="#9ca3af" stroke-width="1" stroke-dasharray="3 3" opacity="0.7"/>
  <line x1="12.0" y1="78.9" x2="208.0" y2="78.9" stroke="#9ca3af" stroke-width="1" opacity="0.5"/>
  <polyline points="12.00,78.92 13.22,78.95 14.45,78.94 15.68,78.93 16.90,78.92 18.12,78.91 19.35,78.90 20.57,78.89 21.80,78.88 23.02,78.87 24.25,78.86 25.48,78.85 26.70,78.84 27.93,78.83 29.15,78.82 30.38,78.81 31.60,78.80 32.83,78.80 34.05,78.80 35.27,78.80 36.50,78.80 37.73,78.81 38.95,78.81 40.17,78.83 41.40,78.84 42.62,78.86 43.85,78.88 45.08,78.90 46.30,78.92 47.52,78.95 48.75,78.98 49.98,79.01 51.20,79.04 52.42,79.07 53.65,79.10 54.88,79.13 56.10,79.16 57.33,79.19 58.55,79.22 59.77,79.24 61.00,79.26 62.22,79.27 63.45,79.27 64.67,79.27 65.90,79.27 67.12,79.25 68.35,79.23 69.58,79.20 70.80,79.16 72.03,79.11 73.25,79.06 74.47,78.99 75.70,78.92 76.92,78.85 78.15,78.76 79.38,78.68 80.60,78.59 81.83,78.50 83.05,78.41 84.28,78.32 85.50,78.24 86.72,78.16 87.95,78.09 89.17,78.03 90.40,77.98 91.62,77.95 92.85,77.93 94.08,77.93 95.30,77.95 96.53,77.99 97.75,78.06 98.97,78.15 100.20,78.26 101.42,78.39 102.65,78.55 103.88,78.72 105.10,78.92 106.33,79.14 107.55,79.37 108.78,79.61 110.00,79.86 111.22,80.12 112.45,80.38 113.68,80.62 114.90,80.86 116.12,81.08 117.35,81.28 118.57,81.45 119.80,81.59 121.03,81.68 122.25,81.73 123.47,81.73 124.70,81.67 125.93,81.55 127.15,81.37 128.38,81.12 129.60,80.81 130.82,80.43 132.05,79.99 133.28,79.48 134.50,78.92 135.72,78.31 136.95,77.66 138.18,76.97 139.40,76.26 140.62,75.53 141.85,74.81 143.07,74.11 144.30,73.43 145.53,72.81 146.75,72.25 147.97,71.77 149.20,71.38 150.43,71.12 151.65,70.98 152.88,70.99 154.10,71.16 155.32,71.50 156.55,72.01 157.78,72.71 159.00,73.59 160.22,74.66 161.45,75.91 162.68,77.34 163.90,78.92 165.12,80.65 166.35,82.50 167.57,84.45 168.80,86.46 170.03,88.51 171.25,90.55 172.47,92.54 173.70,94.45 174.93,96.22 176.15,97.81 177.38,99.16 178.60,100.24 179.82,101.00 181.05,101.38 182.28,101.35 183.50,100.88 184.72,99.93 185.95,98.47 187.18,96.50 188.40,94.00 189.62,90.97 190.85,87.43 192.07,83.40 193.30,78.92 194.53,74.03 195.75,68.80 196.97,63.30 198.20,57.60 199.43,51.82 200.65,46.04 201.88,40.40 203.10,35.01 204.32,30.00 205.55,25.51 206.78,21.67 208.00,18.62" fill="none" stroke="#3b82f6" stroke-width="2.2" stroke-linejoin="round" stroke-linecap="round"/>
  <circle cx="12.0" cy="78.9" r="2.6" fill="#ef4444"/>
  <circle cx="208.0" cy="18.6" r="2.6" fill="#ef4444"/>
</svg>
