<svg xmlns="http://www.w3.org/2000/svg" width="220" height="120" viewBox="0 0 220 120" role="img" aria-label="easeInCirc easing curve">
  <rect x="12.0" y="18.6" width="196.0" height="82.8" fill="none" stroke="#9ca3af" stroke-width="1" stroke-dasharray="3 3" opacity="0.7"/>
  <line x1="12.0" y1="101.4" x2="208.0" y2="101.4" stroke="#9ca3af" stroke-width="1" opacity="0.5"/>
  <polyline points="12.00,101.38 13.22,101.38 14.45,101.37 15.68,101.36 16.90,101.35 18.12,101.34 19.35,101.32 20.57,101.30 21.80,101.28 23.02,101.25 24.25,101.22 25.48,101.18 26.70,101.15 27.93,101.11 29.15,101.06 30.38,101.01 31.60,100.96 32.83,100.91 34.05,100.85 35.27,100.79 36.50,100.73 37.73,100.66 38.95,100.59 40.17,100.52 41.40,100.44 42.62,100.36 43.85,100.28 45.08,100.19 46.30,100.10 47.52,100.01 48.75,99.91 49.98,99.81 51.20,99.71 52.42,99.60 53.65,99.49 54.88,99.37 56.10,99.26 57.33,99.14 58.55,99.01 59.77,98.88 61.00,98.75 62.22,98.62 63.45,98.48 64.67,98.33 65.90,98.19 67.12,98.04 68.35,97.89 69.58,97.73 70.80,97.57 72.03,97.40 73.25,97.23 74.47,97.06 75.70,96.89 76.92,96.71 78.15,96.52 79.38,96.34 80.60,96.14 81.83,95.95 83.05,95.75 84.28,95.55 85.50,95.34 86.72,95.13 87.95,94.91 89.17,94.69 90.40,94.47 91.62,94.24 92.85,94.01 94.08,93.77 95.30,93.53 96.53,93.29 97.75,93.04 98.97,92.78 100.20,92.53 101.42,92.26 102.65,92.00 103.88,91.72 105.10,91.45 106.33,91.17 107.55,90.88 108.78,90.59 110.00,90.29 111.22,89.99 112.45,89.68 113.68,89.37 114.90,89.06 116.12,88.74 117.35,88.41 118.57,88.08 119.80,87.74 121.03,87.39 122.25,87.05 123.47,86.69 124.70,86.33 125.93,85.96 127.15,85.59 128.38,85.21 129.60,84.83 130.82,84.44 132.05,84.04 133.28,83.63 134.50,83.22 135.72,82.81 136.95,82.38 138.18,81.95 139.40,81.51 140.62,81.07 141.85,80.61 143.07,80.15 144.30,79.68 145.53,79.20 146.75,78.72 147.97,78.22 149.20,77.72 150.43,77.21 151.65,76.69 152.88,76.16 154.10,75.62 155.32,75.07 156.55,74.51 157.78,73.94 159.00,73.36 160.22,72.77 161.45,72.16 162.68,71.55 163.90,70.92 165.12,70.28 166.35,69.63 167.57,68.96 168.80,68.28 170.03,67.58 171.25,66.87 172.47,66.14 173.70,65.39 174.93,64.63 176.15,63.84 177.38,63.04 178.60,62.22 179.82,61.37 181.05,60.50 182.28,59.61 183.50,58.69 184.72,57.74 185.95,56.76 187.18,55.74 188.40,54.69 189.62,53.61 190.85,52.48 192.07,51.30 193.30,50.07 194.53,48.78 195.75,47.42 196.97,45.99 198.20,44.46 199.43,42.83 200.65,41.07 201.88,39.15 203.10,37.01 204.32,34.57 205.55,31.67 206.78,27.86 208.00,18.62" fill="none" stroke="#3b82f6" stroke-width="2.2" stroke-linejoin="round" stroke-linecap="round"/>
  <circle cx="12.0" cy="101.4" r="2.6" fill="#ef4444"/>
  <circle cx="208.0" cy="18.6" r="2.6" fill="#ef4444"/>
</svg>
