<svg xmlns="http://www.w3.org/2000/svg" width="220" height="120" viewBox="0 0 220 120" role="img" aria-label="easeInExpo easing curve">
  <rect x="12.0" y="18.6" width="196.0" height="82.8" fill="none" stroke="#9ca3af" stroke-width="1" stroke-dasharray="3 3" opacity="0.7"/>
  <line x1="12.0" y1="101.4" x2="208.0" y2="101.4" stroke="#9ca3af" stroke-width="1" opacity="0.5"/>
  <polyline points="12.00,101.38 13.22,101.29 14.45,101.29 15.68,101.29 16.90,101.28 18.12,101.28 19.35,101.27 20.57,101.27 21.80,101.27 23.02,101.26 24.25,101.25 25.48,101.25 26.70,101.24 27.93,101.24 29.15,101.23 30.38,101.22 31.60,101.22 32.83,101.21 34.05,101.20 35.27,101.20 36.50,101.19 37.73,101.18 38.95,101.17 40.17,101.16 41.40,101.15 42.62,101.14 43.85,101.13 45.08,101.12 46.30,101.11 47.52,101.10 48.75,101.08 49.98,101.07 51.20,101.06 52.42,101.04 53.65,101.03 54.88,101.01 56.10,100.99 57.33,100.98 58.55,100.96 59.77,100.94 61.00,100.92 62.22,100.90 63.45,100.88 64.67,100.86 65.90,100.84 67.12,100.81 68.35,100.79 69.58,100.76 70.80,100.73 72.03,100.70 73.25,100.67 74.47,100.64 75.70,100.61 76.92,100.58 78.15,100.54 79.38,100.50 80.60,100.46 81.83,100.42 83.05,100.38 84.28,100.34 85.50,100.29 86.72,100.24 87.95,100.19 89.17,100.14 90.40,100.09 91.62,100.03 92.85,99.97 94.08,99.91 95.30,99.84 96.53,99.77 97.75,99.70 98.97,99.63 100.20,99.55 101.42,99.47 102.65,99.39 103.88,99.30 105.10,99.20 106.33,99.11 107.55,99.01 108.78,98.90 110.00,98.79 111.22,98.68 112.45,98.56 113.68,98.43 114.90,98.30 116.12,98.17 117.35,98.03 118.57,97.88 119.80,97.72 121.03,97.56 122.25,97.39 123.47,97.21 124.70,97.03 125.93,96.84 127.15,96.64 128.38,96.43 129.60,96.21 130.82,95.98 132.05,95.74 133.28,95.49 134.50,95.23 135.72,94.96 136.95,94.67 138.18,94.37 139.40,94.06 140.62,93.74 141.85,93.40 143.07,93.05 144.30,92.68 145.53,92.30 146.75,91.89 147.97,91.47 149.20,91.03 150.43,90.58 151.65,90.10 152.88,89.60 154.10,89.08 155.32,88.53 156.55,87.96 157.78,87.37 159.00,86.75 160.22,86.10 161.45,85.43 162.68,84.72 163.90,83.98 165.12,83.21 166.35,82.41 167.57,81.57 168.80,80.69 170.03,79.77 171.25,78.82 172.47,77.82 173.70,76.78 174.93,75.69 176.15,74.55 177.38,73.36 178.60,72.12 179.82,70.82 181.05,69.47 182.28,68.06 183.50,66.58 184.72,65.04 185.95,63.43 187.18,61.75 188.40,60.00 189.62,58.17 190.85,56.25 192.07,54.26 193.30,52.17 194.53,49.99 195.75,47.72 196.97,45.34 198.20,42.86 199.43,40.27 200.65,37.56 201.88,34.74 203.10,31.79 204.32,28.71 205.55,25.49 206.78,22.13 208.00,18.62" fill="none" stroke="#3b82f6" stroke-width="2.2" stroke-linejoin="round" stroke-linecap="round"/>
  <circle cx="12.0" cy="101.4" r="2.6" fill="#ef4444"/>
  <circle cx="208.0" cy="18.6" r="2.6" fill="#ef4444"/>
</svg>
