<svg xmlns="http://www.w3.org/2000/svg" width="220" height="120" viewBox="0 0 220 120" role="img" aria-label="easeInQuint easing curve">
  <rect x="12.0" y="18.6" width="196.0" height="82.8" fill="none" stroke="#9ca3af" stroke-width="1" stroke-dasharray="3 3" opacity="0.7"/>
  <line x1="12.0" y1="101.4" x2="208.0" y2="101.4" stroke="#9ca3af" stroke-width="1" opacity="0.5"/>
  <polyline points="12.00,101.38 13.22,101.38 14.45,101.38 15.68,101.38 16.90,101.38 18.12,101.38 19.35,101.38 20.57,101.38 21.80,101.38 23.02,101.38 24.25,101.38 25.48,101.38 26.70,101.38 27.93,101.38 29.15,101.38 30.38,101.38 31.60,101.38 32.83,101.38 34.05,101.38 35.27,101.38 36.50,101.38 37.73,101.38 38.95,101.38 40.17,101.37 41.40,101.37 42.62,101.37 43.85,101.37 45.08,101.37 46.30,101.37 47.52,101.36 48.75,101.36 49.98,101.36 51.20,101.35 52.42,101.35 53.65,101.34 54.88,101.34 56.10,101.33 57.33,101.32 58.55,101.32 59.77,101.31 61.00,101.30 62.22,101.29 63.45,101.28 64.67,101.26 65.90,101.25 67.12,101.23 68.35,101.22 69.58,101.20 70.80,101.18 72.03,101.16 73.25,101.13 74.47,101.11 75.70,101.08 76.92,101.05 78.15,101.02 79.38,100.98 80.60,100.94 81.83,100.90 83.05,100.86 84.28,100.82 85.50,100.77 86.72,100.71 87.95,100.66 89.17,100.60 90.40,100.53 91.62,100.46 92.85,100.39 94.08,100.31 95.30,100.23 96.53,100.14 97.75,100.05 98.97,99.96 100.20,99.85 101.42,99.74 102.65,99.63 103.88,99.51 105.10,99.38 106.33,99.24 107.55,99.10 108.78,98.95 110.00,98.79 111.22,98.63 112.45,98.45 113.68,98.27 114.90,98.08 116.12,97.88 117.35,97.67 118.57,97.45 119.80,97.21 121.03,96.97 122.25,96.72 123.47,96.45 124.70,96.18 125.93,95.89 127.15,95.59 128.38,95.27 129.60,94.94 130.82,94.60 132.05,94.25 133.28,93.87 134.50,93.49 135.72,93.08 136.95,92.67 138.18,92.23 139.40,91.78 140.62,91.31 141.85,90.82 143.07,90.31 144.30,89.78 145.53,89.24 146.75,88.67 147.97,88.08 149.20,87.47 150.43,86.84 151.65,86.18 152.88,85.50 154.10,84.80 155.32,84.08 156.55,83.32 157.78,82.55 159.00,81.74 160.22,80.91 161.45,80.05 162.68,79.16 163.90,78.24 165.12,77.29 166.35,76.31 167.57,75.30 168.80,74.26 170.03,73.18 171.25,72.08 172.47,70.93 173.70,69.75 174.93,68.53 176.15,67.28 177.38,65.99 178.60,64.66 179.82,63.29 181.05,61.88 182.28,60.43 183.50,58.93 184.72,57.39 185.95,55.81 187.18,54.18 188.40,52.51 189.62,50.79 190.85,49.02 192.07,47.20 193.30,45.34 194.53,43.42 195.75,41.45 196.97,39.42 198.20,37.34 199.43,35.21 200.65,33.02 201.88,30.77 203.10,28.46 204.32,26.09 205.55,23.67 206.78,21.17 208.00,18.62" fill="none" stroke="#3b82f6" stroke-width="2.2" stroke-linejoin="round" stroke-linecap="round"/>
  <circle cx="12.0" cy="101.4" r="2.6" fill="#ef4444"/>
  <circle cx="208.0" cy="18.6" r="2.6" fill="#ef4444"/>
</svg>
