<svg xmlns="http://www.w3.org/2000/svg" width="220" height="120" viewBox="0 0 220 120" role="img" aria-label="easeOutBack easing curve">
  <rect x="12.0" y="26.1" width="196.0" height="75.2" fill="none" stroke="#9ca3af" stroke-width="1" stroke-dasharray="3 3" opacity="0.7"/>
  <line x1="12.0" y1="101.4" x2="208.0" y2="101.4" stroke="#9ca3af" stroke-width="1" opacity="0.5"/>
  <polyline points="12.00,101.38 13.22,99.19 14.45,97.03 15.68,94.92 16.90,92.83 18.12,90.79 19.35,88.78 20.57,86.81 21.80,84.87 23.02,82.97 24.25,81.10 25.48,79.27 26.70,77.47 27.93,75.71 29.15,73.98 30.38,72.28 31.60,70.62 32.83,68.99 34.05,67.39 35.27,65.83 36.50,64.29 37.73,62.79 38.95,61.32 40.17,59.88 41.40,58.47 42.62,57.10 43.85,55.75 45.08,54.43 46.30,53.14 47.52,51.88 48.75,50.65 49.98,49.45 51.20,48.28 52.42,47.13 53.65,46.02 54.88,44.93 56.10,43.86 57.33,42.83 58.55,41.82 59.77,40.84 61.00,39.88 62.22,38.95 63.45,38.05 64.67,37.17 65.90,36.31 67.12,35.48 68.35,34.67 69.58,33.89 70.80,33.13 72.03,32.40 73.25,31.68 74.47,30.99 75.70,30.33 76.92,29.68 78.15,29.06 79.38,28.46 80.60,27.88 81.83,27.32 83.05,26.78 84.28,26.26 85.50,25.76 86.72,25.28 87.95,24.82 89.17,24.38 90.40,23.96 91.62,23.56 92.85,23.17 94.08,22.81 95.30,22.46 96.53,22.13 97.75,21.81 98.97,21.52 100.20,21.24 101.42,20.97 102.65,20.72 103.88,20.49 105.10,20.27 106.33,20.07 107.55,19.88 108.78,19.71 110.00,19.55 111.22,19.40 112.45,19.27 113.68,19.15 114.90,19.04 116.12,18.95 117.35,18.87 118.57,18.80 119.80,18.74 121.03,18.70 122.25,18.66 123.47,18.64 124.70,18.62 125.93,18.62 127.15,18.63 128.38,18.64 129.60,18.67 130.82,18.70 132.05,18.75 133.28,18.80 134.50,18.86 135.72,18.93 136.95,19.00 138.18,19.09 139.40,19.18 140.62,19.27 141.85,19.38 143.07,19.48 144.30,19.60 145.53,19.72 146.75,19.85 147.97,19.98 149.20,20.11 150.43,20.25 151.65,20.39 152.88,20.54 154.10,20.69 155.32,20.84 156.55,21.00 157.78,21.16 159.00,21.32 160.22,21.48 161.45,21.65 162.68,21.81 163.90,21.98 165.12,22.15 166.35,22.31 167.57,22.48 168.80,22.65 170.03,22.82 171.25,22.98 172.47,23.15 173.70,23.31 174.93,23.48 176.15,23.64 177.38,23.79 178.60,23.95 179.82,24.10 181.05,24.25 182.28,24.40 183.50,24.54 184.72,24.68 185.95,24.81 187.18,24.94 188.40,25.07 189.62,25.19 190.85,25.30 192.07,25.41 193.30,25.51 194.53,25.61 195.75,25.69 196.97,25.78 198.20,25.85 199.43,25.92 200.65,25.98 201.88,26.03 203.10,26.07 204.32,26.10 205.55,26.12 206.78,26.14 208.00,26.14" fill="none" stroke="#3b82f6" stroke-width="2.2" stroke-linejoin="round" stroke-linecap="round"/>
  <circle cx="12.0" cy="101.4" r="2.6" fill="#ef4444"/>
  <circle cx="208.0" cy="26.1" r="2.6" fill="#ef4444"/>
</svg>
