<svg xmlns="http://www.w3.org/2000/svg" width="220" height="120" viewBox="0 0 220 120" role="img" aria-label="easeInOutExpo easing curve">
  <rect x="12.0" y="18.6" width="196.0" height="82.8" fill="none" stroke="#9ca3af" stroke-width="1" stroke-dasharray="3 3" opacity="0.7"/>
  <line x1="12.0" y1="101.4" x2="208.0" y2="101.4" stroke="#9ca3af" stroke-width="1" opacity="0.5"/>
  <polyline points="12.00,101.38 13.22,101.34 14.45,101.33 15.68,101.33 16.90,101.32 18.12,101.32 19.35,101.31 20.57,101.31 21.80,101.30 23.02,101.29 24.25,101.28 25.48,101.27 26.70,101.27 27.93,101.25 29.15,101.24 30.38,101.23 31.60,101.22 32.83,101.20 34.05,101.19 35.27,101.17 36.50,101.15 37.73,101.13 38.95,101.11 40.17,101.08 41.40,101.06 42.62,101.03 43.85,100.99 45.08,100.96 46.30,100.92 47.52,100.88 48.75,100.84 49.98,100.79 51.20,100.73 52.42,100.67 53.65,100.61 54.88,100.54 56.10,100.46 57.33,100.38 58.55,100.29 59.77,100.19 61.00,100.09 62.22,99.97 63.45,99.84 64.67,99.70 65.90,99.55 67.12,99.39 68.35,99.20 69.58,99.01 70.80,98.79 72.03,98.56 73.25,98.30 74.47,98.03 75.70,97.72 76.92,97.39 78.15,97.03 79.38,96.64 80.60,96.21 81.83,95.74 83.05,95.23 84.28,94.67 85.50,94.06 86.72,93.40 87.95,92.68 89.17,91.89 90.40,91.03 91.62,90.10 92.85,89.08 94.08,87.96 95.30,86.75 96.53,85.43 97.75,83.98 98.97,82.41 100.20,80.69 101.42,78.82 102.65,76.78 103.88,74.55 105.10,72.12 106.33,69.47 107.55,66.58 108.78,63.43 110.00,60.00 111.22,56.57 112.45,53.42 113.68,50.53 114.90,47.88 116.12,45.45 117.35,43.22 118.57,41.18 119.80,39.31 121.03,37.59 122.25,36.02 123.47,34.57 124.70,33.25 125.93,32.04 127.15,30.92 128.38,29.90 129.60,28.97 130.82,28.11 132.05,27.32 133.28,26.60 134.50,25.94 135.72,25.33 136.95,24.77 138.18,24.26 139.40,23.79 140.62,23.36 141.85,22.97 143.07,22.61 144.30,22.28 145.53,21.97 146.75,21.70 147.97,21.44 149.20,21.21 150.43,20.99 151.65,20.80 152.88,20.61 154.10,20.45 155.32,20.30 156.55,20.16 157.78,20.03 159.00,19.91 160.22,19.81 161.45,19.71 162.68,19.62 163.90,19.54 165.12,19.46 166.35,19.39 167.57,19.33 168.80,19.27 170.03,19.21 171.25,19.16 172.47,19.12 173.70,19.08 174.93,19.04 176.15,19.01 177.38,18.97 178.60,18.94 179.82,18.92 181.05,18.89 182.28,18.87 183.50,18.85 184.72,18.83 185.95,18.81 187.18,18.80 188.40,18.78 189.62,18.77 190.85,18.76 192.07,18.75 193.30,18.73 194.53,18.73 195.75,18.72 196.97,18.71 198.20,18.70 199.43,18.69 200.65,18.69 201.88,18.68 203.10,18.68 204.32,18.67 205.55,18.67 206.78,18.66 208.00,18.62" fill="none" stroke="#3b82f6" stroke-width="2.2" stroke-linejoin="round" stroke-linecap="round"/>
  <circle cx="12.0" cy="101.4" r="2.6" fill="#ef4444"/>
  <circle cx="208.0" cy="18.6" r="2.6" fill="#ef4444"/>
</svg>
