<svg xmlns="http://www.w3.org/2000/svg" width="220" height="120" viewBox="0 0 220 120" role="img" aria-label="easeOutSine easing curve">
  <rect x="12.0" y="18.6" width="196.0" height="82.8" fill="none" stroke="#9ca3af" stroke-width="1" stroke-dasharray="3 3" opacity="0.7"/>
  <line x1="12.0" y1="101.4" x2="208.0" y2="101.4" stroke="#9ca3af" stroke-width="1" opacity="0.5"/>
  <polyline points="12.00,101.38 13.22,100.57 14.45,99.75 15.68,98.94 16.90,98.13 18.12,97.32 19.35,96.51 20.57,95.70 21.80,94.89 23.02,94.08 24.25,93.27 25.48,92.46 26.70,91.65 27.93,90.85 29.15,90.04 30.38,89.24 31.60,88.43 32.83,87.63 34.05,86.83 35.27,86.03 36.50,85.23 37.73,84.44 38.95,83.64 40.17,82.85 41.40,82.06 42.62,81.27 43.85,80.48 45.08,79.70 46.30,78.92 47.52,78.13 48.75,77.36 49.98,76.58 51.20,75.81 52.42,75.03 53.65,74.27 54.88,73.50 56.10,72.74 57.33,71.97 58.55,71.22 59.77,70.46 61.00,69.71 62.22,68.96 63.45,68.21 64.67,67.47 65.90,66.73 67.12,66.00 68.35,65.26 69.58,64.53 70.80,63.81 72.03,63.09 73.25,62.37 74.47,61.65 75.70,60.94 76.92,60.23 78.15,59.53 79.38,58.83 80.60,58.14 81.83,57.45 83.05,56.76 84.28,56.08 85.50,55.40 86.72,54.73 87.95,54.06 89.17,53.39 90.40,52.74 91.62,52.08 92.85,51.43 94.08,50.78 95.30,50.14 96.53,49.51 97.75,48.88 98.97,48.25 100.20,47.63 101.42,47.02 102.65,46.41 103.88,45.80 105.10,45.20 106.33,44.61 107.55,44.02 108.78,43.44 110.00,42.86 111.22,42.29 112.45,41.72 113.68,41.16 114.90,40.61 116.12,40.06 117.35,39.52 118.57,38.98 119.80,38.45 121.03,37.92 122.25,37.41 123.47,36.89 124.70,36.39 125.93,35.89 127.15,35.39 128.38,34.91 129.60,34.43 130.82,33.95 132.05,33.48 133.28,33.02 134.50,32.57 135.72,32.12 136.95,31.68 138.18,31.24 139.40,30.82 140.62,30.39 141.85,29.98 143.07,29.57 144.30,29.17 145.53,28.78 146.75,28.39 147.97,28.01 149.20,27.64 150.43,27.28 151.65,26.92 152.88,26.57 154.10,26.22 155.32,25.89 156.55,25.56 157.78,25.23 159.00,24.92 160.22,24.61 161.45,24.31 162.68,24.02 163.90,23.74 165.12,23.46 166.35,23.19 167.57,22.93 168.80,22.67 170.03,22.42 171.25,22.18 172.47,21.95 173.70,21.73 174.93,21.51 176.15,21.30 177.38,21.10 178.60,20.91 179.82,20.72 181.05,20.54 182.28,20.37 183.50,20.21 184.72,20.06 185.95,19.91 187.18,19.77 188.40,19.64 189.62,19.52 190.85,19.40 192.07,19.29 193.30,19.19 194.53,19.10 195.75,19.02 196.97,18.94 198.20,18.88 199.43,18.82 200.65,18.76 201.88,18.72 203.10,18.68 204.32,18.66 205.55,18.64 206.78,18.62 208.00,18.62" fill="none" stroke="#3b82f6" stroke-width="2.2" stroke-linejoin="round" stroke-linecap="round"/>
  <circle cx="12.0" cy="101.4" r="2.6" fill="#ef4444"/>
  <circle cx="208.0" cy="18.6" r="2.6" fill="#ef4444"/>
</svg>
