<svg xmlns="http://www.w3.org/2000/svg" width="220" height="120" viewBox="0 0 220 120" role="img" aria-label="easeOutCubic easing curve">
  <rect x="12.0" y="18.6" width="196.0" height="82.8" fill="none" stroke="#9ca3af" stroke-width="1" stroke-dasharray="3 3" opacity="0.7"/>
  <line x1="12.0" y1="101.4" x2="208.0" y2="101.4" stroke="#9ca3af" stroke-width="1" opacity="0.5"/>
  <polyline points="12.00,101.38 13.22,99.84 14.45,98.31 15.68,96.81 16.90,95.33 18.12,93.86 19.35,92.41 20.57,90.99 21.80,89.58 23.02,88.18 24.25,86.81 25.48,85.46 26.70,84.12 27.93,82.80 29.15,81.50 30.38,80.22 31.60,78.95 32.83,77.70 34.05,76.47 35.27,75.26 36.50,74.06 37.73,72.88 38.95,71.72 40.17,70.57 41.40,69.44 42.62,68.33 43.85,67.24 45.08,66.16 46.30,65.09 47.52,64.04 48.75,63.01 49.98,61.99 51.20,60.99 52.42,60.01 53.65,59.04 54.88,58.08 56.10,57.14 57.33,56.22 58.55,55.31 59.77,54.41 61.00,53.53 62.22,52.67 63.45,51.82 64.67,50.98 65.90,50.16 67.12,49.35 68.35,48.55 69.58,47.77 70.80,47.01 72.03,46.25 73.25,45.51 74.47,44.79 75.70,44.07 76.92,43.37 78.15,42.68 79.38,42.01 80.60,41.35 81.83,40.70 83.05,40.06 84.28,39.44 85.50,38.83 86.72,38.23 87.95,37.64 89.17,37.06 90.40,36.50 91.62,35.94 92.85,35.40 94.08,34.87 95.30,34.35 96.53,33.85 97.75,33.35 98.97,32.86 100.20,32.39 101.42,31.93 102.65,31.47 103.88,31.03 105.10,30.60 106.33,30.17 107.55,29.76 108.78,29.36 110.00,28.97 111.22,28.58 112.45,28.21 113.68,27.84 114.90,27.49 116.12,27.14 117.35,26.81 118.57,26.48 119.80,26.16 121.03,25.85 122.25,25.55 123.47,25.26 124.70,24.97 125.93,24.70 127.15,24.43 128.38,24.17 129.60,23.92 130.82,23.67 132.05,23.44 133.28,23.21 134.50,22.98 135.72,22.77 136.95,22.56 138.18,22.36 139.40,22.17 140.62,21.98 141.85,21.80 143.07,21.63 144.30,21.46 145.53,21.30 146.75,21.15 147.97,21.00 149.20,20.86 150.43,20.72 151.65,20.59 152.88,20.46 154.10,20.34 155.32,20.23 156.55,20.12 157.78,20.01 159.00,19.91 160.22,19.82 161.45,19.73 162.68,19.64 163.90,19.56 165.12,19.49 166.35,19.41 167.57,19.35 168.80,19.28 170.03,19.22 171.25,19.17 172.47,19.11 173.70,19.06 174.93,19.02 176.15,18.98 177.38,18.94 178.60,18.90 179.82,18.87 181.05,18.84 182.28,18.81 183.50,18.78 184.72,18.76 185.95,18.74 187.18,18.72 188.40,18.70 189.62,18.69 190.85,18.68 192.07,18.67 193.30,18.66 194.53,18.65 195.75,18.64 196.97,18.64 198.20,18.63 199.43,18.63 200.65,18.63 201.88,18.62 203.10,18.62 204.32,18.62 205.55,18.62 206.78,18.62 208.00,18.62" fill="none" stroke="#3b82f6" stroke-width="2.2" stroke-linejoin="round" stroke-linecap="round"/>
  <circle cx="12.0" cy="101.4" r="2.6" fill="#ef4444"/>
  <circle cx="208.0" cy="18.6" r="2.6" fill="#ef4444"/>
</svg>
