<svg xmlns="http://www.w3.org/2000/svg" width="220" height="120" viewBox="0 0 220 120" role="img" aria-label="easeOutExpo easing curve">
  <rect x="12.0" y="18.6" width="196.0" height="82.8" fill="none" stroke="#9ca3af" stroke-width="1" stroke-dasharray="3 3" opacity="0.7"/>
  <line x1="12.0" y1="101.4" x2="208.0" y2="101.4" stroke="#9ca3af" stroke-width="1" opacity="0.5"/>
  <polyline points="12.00,101.38 13.22,97.87 14.45,94.51 15.68,91.29 16.90,88.21 18.12,85.26 19.35,82.44 20.57,79.73 21.80,77.14 23.02,74.66 24.25,72.28 25.48,70.01 26.70,67.83 27.93,65.74 29.15,63.75 30.38,61.83 31.60,60.00 32.83,58.25 34.05,56.57 35.27,54.96 36.50,53.42 37.73,51.94 38.95,50.53 40.17,49.18 41.40,47.88 42.62,46.64 43.85,45.45 45.08,44.31 46.30,43.22 47.52,42.18 48.75,41.18 49.98,40.23 51.20,39.31 52.42,38.43 53.65,37.59 54.88,36.79 56.10,36.02 57.33,35.28 58.55,34.57 59.77,33.90 61.00,33.25 62.22,32.63 63.45,32.04 64.67,31.47 65.90,30.92 67.12,30.40 68.35,29.90 69.58,29.42 70.80,28.97 72.03,28.53 73.25,28.11 74.47,27.70 75.70,27.32 76.92,26.95 78.15,26.60 79.38,26.26 80.60,25.94 81.83,25.63 83.05,25.33 84.28,25.04 85.50,24.77 86.72,24.51 87.95,24.26 89.17,24.02 90.40,23.79 91.62,23.57 92.85,23.36 94.08,23.16 95.30,22.97 96.53,22.79 97.75,22.61 98.97,22.44 100.20,22.28 101.42,22.12 102.65,21.97 103.88,21.83 105.10,21.70 106.33,21.57 107.55,21.44 108.78,21.32 110.00,21.21 111.22,21.10 112.45,20.99 113.68,20.89 114.90,20.80 116.12,20.70 117.35,20.61 118.57,20.53 119.80,20.45 121.03,20.37 122.25,20.30 123.47,20.23 124.70,20.16 125.93,20.09 127.15,20.03 128.38,19.97 129.60,19.91 130.82,19.86 132.05,19.81 133.28,19.76 134.50,19.71 135.72,19.66 136.95,19.62 138.18,19.58 139.40,19.54 140.62,19.50 141.85,19.46 143.07,19.42 144.30,19.39 145.53,19.36 146.75,19.33 147.97,19.30 149.20,19.27 150.43,19.24 151.65,19.21 152.88,19.19 154.10,19.16 155.32,19.14 156.55,19.12 157.78,19.10 159.00,19.08 160.22,19.06 161.45,19.04 162.68,19.02 163.90,19.01 165.12,18.99 166.35,18.97 167.57,18.96 168.80,18.94 170.03,18.93 171.25,18.92 172.47,18.90 173.70,18.89 174.93,18.88 176.15,18.87 177.38,18.86 178.60,18.85 179.82,18.84 181.05,18.83 182.28,18.82 183.50,18.81 184.72,18.80 185.95,18.80 187.18,18.79 188.40,18.78 189.62,18.78 190.85,18.77 192.07,18.76 193.30,18.76 194.53,18.75 195.75,18.75 196.97,18.74 198.20,18.73 199.43,18.73 200.65,18.73 201.88,18.72 203.10,18.72 204.32,18.71 205.55,18.71 206.78,18.71 208.00,18.62" fill="none" stroke="#3b82f6" stroke-width="2.2" stroke-linejoin="round" stroke-linecap="round"/>
  <circle cx="12.0" cy="101.4" r="2.6" fill="#ef4444"/>
  <circle cx="208.0" cy="18.6" r="2.6" fill="#ef4444"/>
</svg>
