<svg xmlns="http://www.w3.org/2000/svg" width="220" height="120" viewBox="0 0 220 120" role="img" aria-label="easeOutQuad easing curve">
  <rect x="12.0" y="18.6" width="196.0" height="82.8" fill="none" stroke="#9ca3af" stroke-width="1" stroke-dasharray="3 3" opacity="0.7"/>
  <line x1="12.0" y1="101.4" x2="208.0" y2="101.4" stroke="#9ca3af" stroke-width="1" opacity="0.5"/>
  <polyline points="12.00,101.38 13.22,100.35 14.45,99.32 15.68,98.30 16.90,97.29 18.12,96.29 19.35,95.29 20.57,94.30 21.80,93.31 23.02,92.33 24.25,91.36 25.48,90.39 26.70,89.43 27.93,88.48 29.15,87.53 30.38,86.59 31.60,85.66 32.83,84.73 34.05,83.81 35.27,82.89 36.50,81.98 37.73,81.08 38.95,80.19 40.17,79.30 41.40,78.41 42.62,77.54 43.85,76.67 45.08,75.80 46.30,74.95 47.52,74.10 48.75,73.25 49.98,72.42 51.20,71.59 52.42,70.76 53.65,69.94 54.88,69.13 56.10,68.33 57.33,67.53 58.55,66.74 59.77,65.95 61.00,65.17 62.22,64.40 63.45,63.63 64.67,62.87 65.90,62.12 67.12,61.37 68.35,60.63 69.58,59.90 70.80,59.17 72.03,58.45 73.25,57.74 74.47,57.03 75.70,56.33 76.92,55.63 78.15,54.94 79.38,54.26 80.60,53.59 81.83,52.92 83.05,52.25 84.28,51.60 85.50,50.95 86.72,50.30 87.95,49.67 89.17,49.04 90.40,48.41 91.62,47.80 92.85,47.19 94.08,46.58 95.30,45.98 96.53,45.39 97.75,44.81 98.97,44.23 100.20,43.66 101.42,43.09 102.65,42.53 103.88,41.98 105.10,41.43 106.33,40.89 107.55,40.36 108.78,39.83 110.00,39.31 111.22,38.80 112.45,38.29 113.68,37.79 114.90,37.29 116.12,36.80 117.35,36.32 118.57,35.85 119.80,35.38 121.03,34.92 122.25,34.46 123.47,34.01 124.70,33.57 125.93,33.13 127.15,32.70 128.38,32.28 129.60,31.86 130.82,31.45 132.05,31.05 133.28,30.65 134.50,30.26 135.72,29.87 136.95,29.50 138.18,29.12 139.40,28.76 140.62,28.40 141.85,28.05 143.07,27.70 144.30,27.36 145.53,27.03 146.75,26.70 147.97,26.38 149.20,26.07 150.43,25.76 151.65,25.46 152.88,25.17 154.10,24.88 155.32,24.60 156.55,24.32 157.78,24.05 159.00,23.79 160.22,23.54 161.45,23.29 162.68,23.05 163.90,22.81 165.12,22.58 166.35,22.36 167.57,22.14 168.80,21.93 170.03,21.73 171.25,21.53 172.47,21.34 173.70,21.16 174.93,20.98 176.15,20.81 177.38,20.64 178.60,20.48 179.82,20.33 181.05,20.19 182.28,20.05 183.50,19.91 184.72,19.79 185.95,19.67 187.18,19.55 188.40,19.45 189.62,19.35 190.85,19.25 192.07,19.17 193.30,19.09 194.53,19.01 195.75,18.94 196.97,18.88 198.20,18.83 199.43,18.78 200.65,18.74 201.88,18.70 203.10,18.67 204.32,18.65 205.55,18.63 206.78,18.62 208.00,18.62" fill="none" stroke="#3b82f6" stroke-width="2.2" stroke-linejoin="round" stroke-linecap="round"/>
  <circle cx="12.0" cy="101.4" r="2.6" fill="#ef4444"/>
  <circle cx="208.0" cy="18.6" r="2.6" fill="#ef4444"/>
</svg>
