<svg xmlns="http://www.w3.org/2000/svg" width="220" height="120" viewBox="0 0 220 120" role="img" aria-label="easeInOutQuint easing curve">
  <rect x="12.0" y="18.6" width="196.0" height="82.8" fill="none" stroke="#9ca3af" stroke-width="1" stroke-dasharray="3 3" opacity="0.7"/>
  <line x1="12.0" y1="101.4" x2="208.0" y2="101.4" stroke="#9ca3af" stroke-width="1" opacity="0.5"/>
  <polyline points="12.00,101.38 13.22,101.38 14.45,101.38 15.68,101.38 16.90,101.38 18.12,101.38 19.35,101.38 20.57,101.38 21.80,101.38 23.02,101.38 24.25,101.38 25.48,101.38 26.70,101.38 27.93,101.37 29.15,101.37 30.38,101.37 31.60,101.37 32.83,101.36 34.05,101.36 35.27,101.35 36.50,101.34 37.73,101.33 38.95,101.31 40.17,101.30 41.40,101.28 42.62,101.26 43.85,101.23 45.08,101.20 46.30,101.16 47.52,101.12 48.75,101.07 49.98,101.02 51.20,100.96 52.42,100.89 53.65,100.81 54.88,100.72 56.10,100.62 57.33,100.50 58.55,100.38 59.77,100.24 61.00,100.09 62.22,99.92 63.45,99.73 64.67,99.52 65.90,99.30 67.12,99.05 68.35,98.78 69.58,98.48 70.80,98.16 72.03,97.81 73.25,97.43 74.47,97.02 75.70,96.58 76.92,96.10 78.15,95.58 79.38,95.02 80.60,94.42 81.83,93.78 83.05,93.09 84.28,92.35 85.50,91.56 86.72,90.71 87.95,89.81 89.17,88.85 90.40,87.82 91.62,86.73 92.85,85.56 94.08,84.33 95.30,83.02 96.53,81.63 97.75,80.16 98.97,78.60 100.20,76.95 101.42,75.20 102.65,73.36 103.88,71.41 105.10,69.36 106.33,67.20 107.55,64.92 108.78,62.52 110.00,60.00 111.22,57.48 112.45,55.08 113.68,52.80 114.90,50.64 116.12,48.59 117.35,46.64 118.57,44.80 119.80,43.05 121.03,41.40 122.25,39.84 123.47,38.37 124.70,36.98 125.93,35.67 127.15,34.44 128.38,33.27 129.60,32.18 130.82,31.15 132.05,30.19 133.28,29.29 134.50,28.44 135.72,27.65 136.95,26.91 138.18,26.22 139.40,25.58 140.62,24.98 141.85,24.42 143.07,23.90 144.30,23.42 145.53,22.98 146.75,22.57 147.97,22.19 149.20,21.84 150.43,21.52 151.65,21.22 152.88,20.95 154.10,20.70 155.32,20.48 156.55,20.27 157.78,20.08 159.00,19.91 160.22,19.76 161.45,19.62 162.68,19.50 163.90,19.38 165.12,19.28 166.35,19.19 167.57,19.11 168.80,19.04 170.03,18.98 171.25,18.93 172.47,18.88 173.70,18.84 174.93,18.80 176.15,18.77 177.38,18.74 178.60,18.72 179.82,18.70 181.05,18.69 182.28,18.67 183.50,18.66 184.72,18.65 185.95,18.64 187.18,18.64 188.40,18.63 189.62,18.63 190.85,18.63 192.07,18.63 193.30,18.62 194.53,18.62 195.75,18.62 196.97,18.62 198.20,18.62 199.43,18.62 200.65,18.62 201.88,18.62 203.10,18.62 204.32,18.62 205.55,18.62 206.78,18.62 208.00,18.62" fill="none" stroke="#3b82f6" stroke-width="2.2" stroke-linejoin="round" stroke-linecap="round"/>
  <circle cx="12.0" cy="101.4" r="2.6" fill="#ef4444"/>
  <circle cx="208.0" cy="18.6" r="2.6" fill="#ef4444"/>
</svg>
