<svg xmlns="http://www.w3.org/2000/svg" width="220" height="120" viewBox="0 0 220 120" role="img" aria-label="easeOutBounce easing curve">
  <rect x="12.0" y="18.6" width="196.0" height="82.8" fill="none" stroke="#9ca3af" stroke-width="1" stroke-dasharray="3 3" opacity="0.7"/>
  <line x1="12.0" y1="101.4" x2="208.0" y2="101.4" stroke="#9ca3af" stroke-width="1" opacity="0.5"/>
  <polyline points="12.00,101.38 13.22,101.35 14.45,101.28 15.68,101.16 16.90,100.99 18.12,100.77 19.35,100.50 20.57,100.18 21.80,99.81 23.02,99.40 24.25,98.93 25.48,98.42 26.70,97.86 27.93,97.25 29.15,96.59 30.38,95.88 31.60,95.12 32.83,94.31 34.05,93.46 35.27,92.55 36.50,91.60 37.73,90.60 38.95,89.55 40.17,88.45 41.40,87.30 42.62,86.10 43.85,84.85 45.08,83.56 46.30,82.21 47.52,80.82 48.75,79.38 49.98,77.89 51.20,76.34 52.42,74.76 53.65,73.12 54.88,71.43 56.10,69.70 57.33,67.91 58.55,66.08 59.77,64.19 61.00,62.26 62.22,60.28 63.45,58.25 64.67,56.18 65.90,54.05 67.12,51.87 68.35,49.65 69.58,47.37 70.80,45.05 72.03,42.68 73.25,40.26 74.47,37.79 75.70,35.27 76.92,32.71 78.15,30.09 79.38,27.42 80.60,24.71 81.83,21.95 83.05,19.14 84.28,19.77 85.50,21.13 86.72,22.44 87.95,23.70 89.17,24.91 90.40,26.07 91.62,27.18 92.85,28.25 94.08,29.26 95.30,30.23 96.53,31.15 97.75,32.02 98.97,32.84 100.20,33.61 101.42,34.33 102.65,35.00 103.88,35.63 105.10,36.20 106.33,36.73 107.55,37.21 108.78,37.64 110.00,38.02 111.22,38.35 112.45,38.63 113.68,38.86 114.90,39.05 116.12,39.18 117.35,39.27 118.57,39.31 119.80,39.30 121.03,39.24 122.25,39.13 123.47,38.97 124.70,38.76 125.93,38.51 127.15,38.20 128.38,37.85 129.60,37.45 130.82,37.00 132.05,36.50 133.28,35.95 134.50,35.35 135.72,34.70 136.95,34.01 138.18,33.26 139.40,32.47 140.62,31.63 141.85,30.74 143.07,29.80 144.30,28.81 145.53,27.77 146.75,26.68 147.97,25.55 149.20,24.36 150.43,23.13 151.65,21.85 152.88,20.51 154.10,19.13 155.32,19.06 156.55,19.72 157.78,20.33 159.00,20.88 160.22,21.39 161.45,21.85 162.68,22.26 163.90,22.63 165.12,22.94 166.35,23.20 167.57,23.42 168.80,23.59 170.03,23.70 171.25,23.77 172.47,23.79 173.70,23.76 174.93,23.69 176.15,23.56 177.38,23.38 178.60,23.16 179.82,22.89 181.05,22.56 182.28,22.19 183.50,21.77 184.72,21.30 185.95,20.79 187.18,20.22 188.40,19.60 189.62,18.94 190.85,18.81 192.07,19.11 193.30,19.37 194.53,19.57 195.75,19.73 196.97,19.84 198.20,19.90 199.43,19.91 200.65,19.87 201.88,19.79 203.10,19.65 204.32,19.47 205.55,19.23 206.78,18.95 208.00,18.62" fill="none" stroke="#3b82f6" stroke-width="2.2" stroke-linejoin="round" stroke-linecap="round"/>
  <circle cx="12.0" cy="101.4" r="2.6" fill="#ef4444"/>
  <circle cx="208.0" cy="18.6" r="2.6" fill="#ef4444"/>
</svg>
