<svg xmlns="http://www.w3.org/2000/svg" width="220" height="120" viewBox="0 0 220 120" role="img" aria-label="easeOutQuint easing curve">
  <rect x="12.0" y="18.6" width="196.0" height="82.8" fill="none" stroke="#9ca3af" stroke-width="1" stroke-dasharray="3 3" opacity="0.7"/>
  <line x1="12.0" y1="101.4" x2="208.0" y2="101.4" stroke="#9ca3af" stroke-width="1" opacity="0.5"/>
  <polyline points="12.00,101.38 13.22,98.83 14.45,96.33 15.68,93.91 16.90,91.54 18.12,89.23 19.35,86.98 20.57,84.79 21.80,82.66 23.02,80.58 24.25,78.55 25.48,76.58 26.70,74.66 27.93,72.80 29.15,70.98 30.38,69.21 31.60,67.49 32.83,65.82 34.05,64.19 35.27,62.61 36.50,61.07 37.73,59.57 38.95,58.12 40.17,56.71 41.40,55.34 42.62,54.01 43.85,52.72 45.08,51.47 46.30,50.25 47.52,49.07 48.75,47.92 49.98,46.82 51.20,45.74 52.42,44.70 53.65,43.69 54.88,42.71 56.10,41.76 57.33,40.84 58.55,39.95 59.77,39.09 61.00,38.26 62.22,37.45 63.45,36.68 64.67,35.92 65.90,35.20 67.12,34.50 68.35,33.82 69.58,33.16 70.80,32.53 72.03,31.92 73.25,31.33 74.47,30.76 75.70,30.22 76.92,29.69 78.15,29.18 79.38,28.69 80.60,28.22 81.83,27.77 83.05,27.33 84.28,26.92 85.50,26.51 86.72,26.13 87.95,25.75 89.17,25.40 90.40,25.06 91.62,24.73 92.85,24.41 94.08,24.11 95.30,23.82 96.53,23.55 97.75,23.28 98.97,23.03 100.20,22.79 101.42,22.55 102.65,22.33 103.88,22.12 105.10,21.92 106.33,21.73 107.55,21.55 108.78,21.37 110.00,21.21 111.22,21.05 112.45,20.90 113.68,20.76 114.90,20.62 116.12,20.49 117.35,20.37 118.57,20.26 119.80,20.15 121.03,20.04 122.25,19.95 123.47,19.86 124.70,19.77 125.93,19.69 127.15,19.61 128.38,19.54 129.60,19.47 130.82,19.40 132.05,19.34 133.28,19.29 134.50,19.23 135.72,19.18 136.95,19.14 138.18,19.10 139.40,19.06 140.62,19.02 141.85,18.98 143.07,18.95 144.30,18.92 145.53,18.89 146.75,18.87 147.97,18.84 149.20,18.82 150.43,18.80 151.65,18.78 152.88,18.77 154.10,18.75 155.32,18.74 156.55,18.72 157.78,18.71 159.00,18.70 160.22,18.69 161.45,18.68 162.68,18.68 163.90,18.67 165.12,18.66 166.35,18.66 167.57,18.65 168.80,18.65 170.03,18.64 171.25,18.64 172.47,18.64 173.70,18.63 174.93,18.63 176.15,18.63 177.38,18.63 178.60,18.63 179.82,18.63 181.05,18.62 182.28,18.62 183.50,18.62 184.72,18.62 185.95,18.62 187.18,18.62 188.40,18.62 189.62,18.62 190.85,18.62 192.07,18.62 193.30,18.62 194.53,18.62 195.75,18.62 196.97,18.62 198.20,18.62 199.43,18.62 200.65,18.62 201.88,18.62 203.10,18.62 204.32,18.62 205.55,18.62 206.78,18.62 208.00,18.62" fill="none" stroke="#3b82f6" stroke-width="2.2" stroke-linejoin="round" stroke-linecap="round"/>
  <circle cx="12.0" cy="101.4" r="2.6" fill="#ef4444"/>
  <circle cx="208.0" cy="18.6" r="2.6" fill="#ef4444"/>
</svg>
