<svg xmlns="http://www.w3.org/2000/svg" width="220" height="120" viewBox="0 0 220 120" role="img" aria-label="easeInOutQuart easing curve">
  <rect x="12.0" y="18.6" width="196.0" height="82.8" fill="none" stroke="#9ca3af" stroke-width="1" stroke-dasharray="3 3" opacity="0.7"/>
  <line x1="12.0" y1="101.4" x2="208.0" y2="101.4" stroke="#9ca3af" stroke-width="1" opacity="0.5"/>
  <polyline points="12.00,101.38 13.22,101.38 14.45,101.38 15.68,101.38 16.90,101.38 18.12,101.38 19.35,101.38 20.57,101.38 21.80,101.38 23.02,101.37 24.25,101.37 25.48,101.36 26.70,101.36 27.93,101.35 29.15,101.34 30.38,101.33 31.60,101.31 32.83,101.29 34.05,101.27 35.27,101.25 36.50,101.22 37.73,101.18 38.95,101.14 40.17,101.10 41.40,101.04 42.62,100.98 43.85,100.92 45.08,100.84 46.30,100.76 47.52,100.66 48.75,100.56 49.98,100.45 51.20,100.32 52.42,100.18 53.65,100.03 54.88,99.86 56.10,99.68 57.33,99.49 58.55,99.27 59.77,99.04 61.00,98.79 62.22,98.52 63.45,98.24 64.67,97.93 65.90,97.59 67.12,97.24 68.35,96.86 69.58,96.45 70.80,96.02 72.03,95.56 73.25,95.07 74.47,94.54 75.70,93.99 76.92,93.41 78.15,92.79 79.38,92.14 80.60,91.44 81.83,90.72 83.05,89.95 84.28,89.14 85.50,88.29 86.72,87.39 87.95,86.45 89.17,85.47 90.40,84.43 91.62,83.35 92.85,82.21 94.08,81.02 95.30,79.78 96.53,78.48 97.75,77.12 98.97,75.71 100.20,74.23 101.42,72.69 102.65,71.09 103.88,69.41 105.10,67.68 106.33,65.87 107.55,63.99 108.78,62.03 110.00,60.00 111.22,57.97 112.45,56.01 113.68,54.13 114.90,52.32 116.12,50.59 117.35,48.91 118.57,47.31 119.80,45.77 121.03,44.29 122.25,42.88 123.47,41.52 124.70,40.22 125.93,38.98 127.15,37.79 128.38,36.65 129.60,35.57 130.82,34.53 132.05,33.55 133.28,32.61 134.50,31.71 135.72,30.86 136.95,30.05 138.18,29.28 139.40,28.56 140.62,27.86 141.85,27.21 143.07,26.59 144.30,26.01 145.53,25.46 146.75,24.93 147.97,24.44 149.20,23.98 150.43,23.55 151.65,23.14 152.88,22.76 154.10,22.41 155.32,22.07 156.55,21.76 157.78,21.48 159.00,21.21 160.22,20.96 161.45,20.73 162.68,20.51 163.90,20.32 165.12,20.14 166.35,19.97 167.57,19.82 168.80,19.68 170.03,19.55 171.25,19.44 172.47,19.34 173.70,19.24 174.93,19.16 176.15,19.08 177.38,19.02 178.60,18.96 179.82,18.90 181.05,18.86 182.28,18.82 183.50,18.78 184.72,18.75 185.95,18.73 187.18,18.71 188.40,18.69 189.62,18.67 190.85,18.66 192.07,18.65 193.30,18.64 194.53,18.64 195.75,18.63 196.97,18.63 198.20,18.62 199.43,18.62 200.65,18.62 201.88,18.62 203.10,18.62 204.32,18.62 205.55,18.62 206.78,18.62 208.00,18.62" fill="none" stroke="#3b82f6" stroke-width="2.2" stroke-linejoin="round" stroke-linecap="round"/>
  <circle cx="12.0" cy="101.4" r="2.6" fill="#ef4444"/>
  <circle cx="208.0" cy="18.6" r="2.6" fill="#ef4444"/>
</svg>
