<svg xmlns="http://www.w3.org/2000/svg" width="220" height="120" viewBox="0 0 220 120" role="img" aria-label="easeOutElastic easing curve">
  <rect x="12.0" y="41.1" width="196.0" height="60.3" fill="none" stroke="#9ca3af" stroke-width="1" stroke-dasharray="3 3" opacity="0.7"/>
  <line x1="12.0" y1="101.4" x2="208.0" y2="101.4" stroke="#9ca3af" stroke-width="1" opacity="0.5"/>
  <polyline points="12.00,101.38 13.22,98.33 14.45,94.49 15.68,90.00 16.90,84.99 18.12,79.60 19.35,73.96 20.57,68.18 21.80,62.40 23.02,56.70 24.25,51.20 25.48,45.97 26.70,41.08 27.93,36.60 29.15,32.57 30.38,29.03 31.60,26.00 32.83,23.50 34.05,21.53 35.27,20.07 36.50,19.12 37.73,18.65 38.95,18.62 40.17,19.00 41.40,19.76 42.62,20.84 43.85,22.19 45.08,23.78 46.30,25.55 47.52,27.46 48.75,29.45 49.98,31.49 51.20,33.54 52.42,35.55 53.65,37.50 54.88,39.35 56.10,41.08 57.33,42.66 58.55,44.09 59.77,45.34 61.00,46.41 62.22,47.29 63.45,47.99 64.67,48.50 65.90,48.84 67.12,49.01 68.35,49.02 69.58,48.88 70.80,48.62 72.03,48.23 73.25,47.75 74.47,47.19 75.70,46.57 76.92,45.89 78.15,45.19 79.38,44.47 80.60,43.74 81.83,43.03 83.05,42.34 84.28,41.69 85.50,41.08 86.72,40.52 87.95,40.01 89.17,39.57 90.40,39.19 91.62,38.88 92.85,38.63 94.08,38.45 95.30,38.33 96.53,38.27 97.75,38.27 98.97,38.32 100.20,38.41 101.42,38.55 102.65,38.72 103.88,38.92 105.10,39.14 106.33,39.38 107.55,39.62 108.78,39.88 110.00,40.14 111.22,40.39 112.45,40.63 113.68,40.86 114.90,41.08 116.12,41.28 117.35,41.45 118.57,41.61 119.80,41.74 121.03,41.85 122.25,41.94 123.47,42.01 124.70,42.05 125.93,42.07 127.15,42.07 128.38,42.05 129.60,42.02 130.82,41.97 132.05,41.91 133.28,41.84 134.50,41.76 135.72,41.68 136.95,41.59 138.18,41.50 139.40,41.41 140.62,41.32 141.85,41.24 143.07,41.15 144.30,41.08 145.53,41.01 146.75,40.94 147.97,40.89 149.20,40.84 150.43,40.80 151.65,40.77 152.88,40.75 154.10,40.73 155.32,40.73 156.55,40.73 157.78,40.73 159.00,40.74 160.22,40.76 161.45,40.78 162.68,40.81 163.90,40.84 165.12,40.87 166.35,40.90 167.57,40.93 168.80,40.96 170.03,40.99 171.25,41.02 172.47,41.05 173.70,41.08 174.93,41.10 176.15,41.12 177.38,41.14 178.60,41.16 179.82,41.17 181.05,41.19 182.28,41.19 183.50,41.20 184.72,41.20 185.95,41.20 187.18,41.20 188.40,41.20 189.62,41.19 190.85,41.18 192.07,41.17 193.30,41.16 194.53,41.15 195.75,41.14 196.97,41.13 198.20,41.12 199.43,41.11 200.65,41.10 201.88,41.09 203.10,41.08 204.32,41.07 205.55,41.06 206.78,41.05 208.00,41.08" fill="none" stroke="#3b82f6" stroke-width="2.2" stroke-linejoin="round" stroke-linecap="round"/>
  <circle cx="12.0" cy="101.4" r="2.6" fill="#ef4444"/>
  <circle cx="208.0" cy="41.1" r="2.6" fill="#ef4444"/>
</svg>
