<svg xmlns="http://www.w3.org/2000/svg" width="220" height="120" viewBox="0 0 220 120" role="img" aria-label="easeInOutSine easing curve">
  <rect x="12.0" y="18.6" width="196.0" height="82.8" fill="none" stroke="#9ca3af" stroke-width="1" stroke-dasharray="3 3" opacity="0.7"/>
  <line x1="12.0" y1="101.4" x2="208.0" y2="101.4" stroke="#9ca3af" stroke-width="1" opacity="0.5"/>
  <polyline points="12.00,101.38 13.22,101.37 14.45,101.35 15.68,101.31 16.90,101.25 18.12,101.18 19.35,101.09 20.57,100.99 21.80,100.87 23.02,100.73 24.25,100.58 25.48,100.42 26.70,100.24 27.93,100.04 29.15,99.83 30.38,99.60 31.60,99.35 32.83,99.10 34.05,98.82 35.27,98.53 36.50,98.23 37.73,97.91 38.95,97.58 40.17,97.23 41.40,96.87 42.62,96.49 43.85,96.10 45.08,95.70 46.30,95.28 47.52,94.85 48.75,94.41 49.98,93.95 51.20,93.48 52.42,92.99 53.65,92.50 54.88,91.99 56.10,91.47 57.33,90.93 58.55,90.39 59.77,89.83 61.00,89.26 62.22,88.68 63.45,88.09 64.67,87.49 65.90,86.87 67.12,86.25 68.35,85.62 69.58,84.97 70.80,84.32 72.03,83.66 73.25,82.99 74.47,82.31 75.70,81.62 76.92,80.92 78.15,80.22 79.38,79.51 80.60,78.79 81.83,78.06 83.05,77.32 84.28,76.58 85.50,75.84 86.72,75.08 87.95,74.32 89.17,73.56 90.40,72.79 91.62,72.01 92.85,71.23 94.08,70.45 95.30,69.66 96.53,68.87 97.75,68.07 98.97,67.27 100.20,66.47 101.42,65.67 102.65,64.86 103.88,64.06 105.10,63.25 106.33,62.44 107.55,61.62 108.78,60.81 110.00,60.00 111.22,59.19 112.45,58.38 113.68,57.56 114.90,56.75 116.12,55.94 117.35,55.14 118.57,54.33 119.80,53.53 121.03,52.73 122.25,51.93 123.47,51.13 124.70,50.34 125.93,49.55 127.15,48.77 128.38,47.99 129.60,47.21 130.82,46.44 132.05,45.68 133.28,44.92 134.50,44.16 135.72,43.42 136.95,42.68 138.18,41.94 139.40,41.21 140.62,40.49 141.85,39.78 143.07,39.08 144.30,38.38 145.53,37.69 146.75,37.01 147.97,36.34 149.20,35.68 150.43,35.03 151.65,34.38 152.88,33.75 154.10,33.13 155.32,32.51 156.55,31.91 157.78,31.32 159.00,30.74 160.22,30.17 161.45,29.61 162.68,29.07 163.90,28.53 165.12,28.01 166.35,27.50 167.57,27.01 168.80,26.52 170.03,26.05 171.25,25.59 172.47,25.15 173.70,24.72 174.93,24.30 176.15,23.90 177.38,23.51 178.60,23.13 179.82,22.77 181.05,22.42 182.28,22.09 183.50,21.77 184.72,21.47 185.95,21.18 187.18,20.90 188.40,20.65 189.62,20.40 190.85,20.17 192.07,19.96 193.30,19.76 194.53,19.58 195.75,19.42 196.97,19.27 198.20,19.13 199.43,19.01 200.65,18.91 201.88,18.82 203.10,18.75 204.32,18.69 205.55,18.65 206.78,18.63 208.00,18.62" fill="none" stroke="#3b82f6" stroke-width="2.2" stroke-linejoin="round" stroke-linecap="round"/>
  <circle cx="12.0" cy="101.4" r="2.6" fill="#ef4444"/>
  <circle cx="208.0" cy="18.6" r="2.6" fill="#ef4444"/>
</svg>
