<svg xmlns="http://www.w3.org/2000/svg" width="220" height="120" viewBox="0 0 220 120" role="img" aria-label="easeInOutCubic easing curve">
  <rect x="12.0" y="18.6" width="196.0" height="82.8" fill="none" stroke="#9ca3af" stroke-width="1" stroke-dasharray="3 3" opacity="0.7"/>
  <line x1="12.0" y1="101.4" x2="208.0" y2="101.4" stroke="#9ca3af" stroke-width="1" opacity="0.5"/>
  <polyline points="12.00,101.38 13.22,101.38 14.45,101.38 15.68,101.38 16.90,101.37 18.12,101.37 19.35,101.36 20.57,101.35 21.80,101.34 23.02,101.32 24.25,101.30 25.48,101.27 26.70,101.24 27.93,101.20 29.15,101.16 30.38,101.11 31.60,101.05 32.83,100.98 34.05,100.91 35.27,100.82 36.50,100.73 37.73,100.63 38.95,100.52 40.17,100.40 41.40,100.26 42.62,100.12 43.85,99.96 45.08,99.79 46.30,99.61 47.52,99.41 48.75,99.20 49.98,98.97 51.20,98.73 52.42,98.47 53.65,98.20 54.88,97.91 56.10,97.61 57.33,97.29 58.55,96.94 59.77,96.59 61.00,96.21 62.22,95.81 63.45,95.39 64.67,94.95 65.90,94.49 67.12,94.01 68.35,93.51 69.58,92.99 70.80,92.44 72.03,91.87 73.25,91.28 74.47,90.66 75.70,90.02 76.92,89.35 78.15,88.65 79.38,87.93 80.60,87.19 81.83,86.41 83.05,85.61 84.28,84.78 85.50,83.92 86.72,83.03 87.95,82.12 89.17,81.17 90.40,80.19 91.62,79.18 92.85,78.14 94.08,77.07 95.30,75.97 96.53,74.83 97.75,73.66 98.97,72.45 100.20,71.21 101.42,69.94 102.65,68.63 103.88,67.28 105.10,65.90 106.33,64.48 107.55,63.03 108.78,61.53 110.00,60.00 111.22,58.47 112.45,56.97 113.68,55.52 114.90,54.10 116.12,52.72 117.35,51.37 118.57,50.06 119.80,48.79 121.03,47.55 122.25,46.34 123.47,45.17 124.70,44.03 125.93,42.93 127.15,41.86 128.38,40.82 129.60,39.81 130.82,38.83 132.05,37.88 133.28,36.97 134.50,36.08 135.72,35.22 136.95,34.39 138.18,33.59 139.40,32.81 140.62,32.07 141.85,31.35 143.07,30.65 144.30,29.98 145.53,29.34 146.75,28.72 147.97,28.13 149.20,27.56 150.43,27.01 151.65,26.49 152.88,25.99 154.10,25.51 155.32,25.05 156.55,24.61 157.78,24.19 159.00,23.79 160.22,23.41 161.45,23.06 162.68,22.71 163.90,22.39 165.12,22.09 166.35,21.80 167.57,21.53 168.80,21.27 170.03,21.03 171.25,20.80 172.47,20.59 173.70,20.39 174.93,20.21 176.15,20.04 177.38,19.88 178.60,19.74 179.82,19.60 181.05,19.48 182.28,19.37 183.50,19.27 184.72,19.18 185.95,19.09 187.18,19.02 188.40,18.95 189.62,18.89 190.85,18.84 192.07,18.80 193.30,18.76 194.53,18.73 195.75,18.70 196.97,18.68 198.20,18.66 199.43,18.65 200.65,18.64 201.88,18.63 203.10,18.63 204.32,18.62 205.55,18.62 206.78,18.62 208.00,18.62" fill="none" stroke="#3b82f6" stroke-width="2.2" stroke-linejoin="round" stroke-linecap="round"/>
  <circle cx="12.0" cy="101.4" r="2.6" fill="#ef4444"/>
  <circle cx="208.0" cy="18.6" r="2.6" fill="#ef4444"/>
</svg>
