<svg xmlns="http://www.w3.org/2000/svg" width="220" height="120" viewBox="0 0 220 120" role="img" aria-label="easeOutQuart easing curve">
  <rect x="12.0" y="18.6" width="196.0" height="82.8" fill="none" stroke="#9ca3af" stroke-width="1" stroke-dasharray="3 3" opacity="0.7"/>
  <line x1="12.0" y1="101.4" x2="208.0" y2="101.4" stroke="#9ca3af" stroke-width="1" opacity="0.5"/>
  <polyline points="12.00,101.38 13.22,99.33 14.45,97.32 15.68,95.34 16.90,93.41 18.12,91.51 19.35,89.65 20.57,87.82 21.80,86.03 23.02,84.27 24.25,82.55 25.48,80.86 26.70,79.21 27.93,77.59 29.15,76.00 30.38,74.44 31.60,72.92 32.83,71.43 34.05,69.96 35.27,68.53 36.50,67.13 37.73,65.76 38.95,64.42 40.17,63.11 41.40,61.82 42.62,60.56 43.85,59.34 45.08,58.13 46.30,56.96 47.52,55.81 48.75,54.69 49.98,53.59 51.20,52.52 52.42,51.47 53.65,50.45 54.88,49.45 56.10,48.48 57.33,47.52 58.55,46.60 59.77,45.69 61.00,44.81 62.22,43.94 63.45,43.10 64.67,42.28 65.90,41.49 67.12,40.71 68.35,39.95 69.58,39.21 70.80,38.49 72.03,37.79 73.25,37.11 74.47,36.45 75.70,35.80 76.92,35.17 78.15,34.56 79.38,33.97 80.60,33.39 81.83,32.83 83.05,32.29 84.28,31.76 85.50,31.25 86.72,30.75 87.95,30.27 89.17,29.80 90.40,29.35 91.62,28.91 92.85,28.48 94.08,28.07 95.30,27.67 96.53,27.28 97.75,26.91 98.97,26.54 100.20,26.19 101.42,25.86 102.65,25.53 103.88,25.21 105.10,24.91 106.33,24.61 107.55,24.33 108.78,24.06 110.00,23.79 111.22,23.54 112.45,23.29 113.68,23.06 114.90,22.83 116.12,22.62 117.35,22.41 118.57,22.21 119.80,22.01 121.03,21.83 122.25,21.65 123.47,21.48 124.70,21.32 125.93,21.17 127.15,21.02 128.38,20.87 129.60,20.74 130.82,20.61 132.05,20.49 133.28,20.37 134.50,20.26 135.72,20.15 136.95,20.05 138.18,19.95 139.40,19.86 140.62,19.78 141.85,19.69 143.07,19.62 144.30,19.54 145.53,19.48 146.75,19.41 147.97,19.35 149.20,19.29 150.43,19.24 151.65,19.19 152.88,19.14 154.10,19.09 155.32,19.05 156.55,19.01 157.78,18.98 159.00,18.94 160.22,18.91 161.45,18.88 162.68,18.86 163.90,18.83 165.12,18.81 166.35,18.79 167.57,18.77 168.80,18.75 170.03,18.74 171.25,18.72 172.47,18.71 173.70,18.70 174.93,18.69 176.15,18.68 177.38,18.67 178.60,18.66 179.82,18.66 181.05,18.65 182.28,18.65 183.50,18.64 184.72,18.64 185.95,18.63 187.18,18.63 188.40,18.63 189.62,18.63 190.85,18.63 192.07,18.62 193.30,18.62 194.53,18.62 195.75,18.62 196.97,18.62 198.20,18.62 199.43,18.62 200.65,18.62 201.88,18.62 203.10,18.62 204.32,18.62 205.55,18.62 206.78,18.62 208.00,18.62" fill="none" stroke="#3b82f6" stroke-width="2.2" stroke-linejoin="round" stroke-linecap="round"/>
  <circle cx="12.0" cy="101.4" r="2.6" fill="#ef4444"/>
  <circle cx="208.0" cy="18.6" r="2.6" fill="#ef4444"/>
</svg>
