<svg xmlns="http://www.w3.org/2000/svg" width="220" height="120" viewBox="0 0 220 120" role="img" aria-label="easeInQuad easing curve">
  <rect x="12.0" y="18.6" width="196.0" height="82.8" fill="none" stroke="#9ca3af" stroke-width="1" stroke-dasharray="3 3" opacity="0.7"/>
  <line x1="12.0" y1="101.4" x2="208.0" y2="101.4" stroke="#9ca3af" stroke-width="1" opacity="0.5"/>
  <polyline points="12.00,101.38 13.22,101.38 14.45,101.37 15.68,101.35 16.90,101.33 18.12,101.30 19.35,101.26 20.57,101.22 21.80,101.17 23.02,101.12 24.25,101.06 25.48,100.99 26.70,100.91 27.93,100.83 29.15,100.75 30.38,100.65 31.60,100.55 32.83,100.45 34.05,100.33 35.27,100.21 36.50,100.09 37.73,99.95 38.95,99.81 40.17,99.67 41.40,99.52 42.62,99.36 43.85,99.19 45.08,99.02 46.30,98.84 47.52,98.66 48.75,98.47 49.98,98.27 51.20,98.07 52.42,97.86 53.65,97.64 54.88,97.42 56.10,97.19 57.33,96.95 58.55,96.71 59.77,96.46 61.00,96.21 62.22,95.95 63.45,95.68 64.67,95.40 65.90,95.12 67.12,94.83 68.35,94.54 69.58,94.24 70.80,93.93 72.03,93.62 73.25,93.30 74.47,92.97 75.70,92.64 76.92,92.30 78.15,91.95 79.38,91.60 80.60,91.24 81.83,90.88 83.05,90.50 84.28,90.13 85.50,89.74 86.72,89.35 87.95,88.95 89.17,88.55 90.40,88.14 91.62,87.72 92.85,87.30 94.08,86.87 95.30,86.43 96.53,85.99 97.75,85.54 98.97,85.08 100.20,84.62 101.42,84.15 102.65,83.68 103.88,83.20 105.10,82.71 106.33,82.21 107.55,81.71 108.78,81.20 110.00,80.69 111.22,80.17 112.45,79.64 113.68,79.11 114.90,78.57 116.12,78.02 117.35,77.47 118.57,76.91 119.80,76.34 121.03,75.77 122.25,75.19 123.47,74.61 124.70,74.02 125.93,73.42 127.15,72.81 128.38,72.20 129.60,71.59 130.82,70.96 132.05,70.33 133.28,69.70 134.50,69.05 135.72,68.40 136.95,67.75 138.18,67.08 139.40,66.41 140.62,65.74 141.85,65.06 143.07,64.37 144.30,63.67 145.53,62.97 146.75,62.26 147.97,61.55 149.20,60.83 150.43,60.10 151.65,59.37 152.88,58.63 154.10,57.88 155.32,57.13 156.55,56.37 157.78,55.60 159.00,54.83 160.22,54.05 161.45,53.26 162.68,52.47 163.90,51.67 165.12,50.87 166.35,50.06 167.57,49.24 168.80,48.41 170.03,47.58 171.25,46.75 172.47,45.90 173.70,45.05 174.93,44.20 176.15,43.33 177.38,42.46 178.60,41.59 179.82,40.70 181.05,39.81 182.28,38.92 183.50,38.02 184.72,37.11 185.95,36.19 187.18,35.27 188.40,34.34 189.62,33.41 190.85,32.47 192.07,31.52 193.30,30.57 194.53,29.61 195.75,28.64 196.97,27.67 198.20,26.69 199.43,25.70 200.65,24.71 201.88,23.71 203.10,22.71 204.32,21.70 205.55,20.68 206.78,19.65 208.00,18.62" fill="none" stroke="#3b82f6" stroke-width="2.2" stroke-linejoin="round" stroke-linecap="round"/>
  <circle cx="12.0" cy="101.4" r="2.6" fill="#ef4444"/>
  <circle cx="208.0" cy="18.6" r="2.6" fill="#ef4444"/>
</svg>
