<svg xmlns="http://www.w3.org/2000/svg" width="220" height="120" viewBox="0 0 220 120" role="img" aria-label="easeInOutBounce easing curve">
  <rect x="12.0" y="18.6" width="196.0" height="82.8" fill="none" stroke="#9ca3af" stroke-width="1" stroke-dasharray="3 3" opacity="0.7"/>
  <line x1="12.0" y1="101.4" x2="208.0" y2="101.4" stroke="#9ca3af" stroke-width="1" opacity="0.5"/>
  <polyline points="12.00,101.38 13.22,101.07 14.45,100.86 15.68,100.75 16.90,100.74 18.12,100.82 19.35,101.01 20.57,101.29 21.80,100.89 23.02,100.30 24.25,99.80 25.48,99.41 26.70,99.11 27.93,98.91 29.15,98.81 30.38,98.80 31.60,98.90 32.83,99.09 34.05,99.38 35.27,99.76 36.50,100.25 37.73,100.83 38.95,101.12 40.17,99.77 41.40,98.51 42.62,97.35 43.85,96.29 45.08,95.32 46.30,94.45 47.52,93.69 48.75,93.01 49.98,92.44 51.20,91.97 52.42,91.59 53.65,91.31 54.88,91.13 56.10,91.04 57.33,91.05 58.55,91.17 59.77,91.37 61.00,91.68 62.22,92.09 63.45,92.59 64.67,93.19 65.90,93.89 67.12,94.68 68.35,95.57 69.58,96.57 70.80,97.66 72.03,98.84 73.25,100.13 74.47,101.12 75.70,98.33 76.92,95.64 78.15,93.05 79.38,90.56 80.60,88.16 81.83,85.87 83.05,83.67 84.28,81.56 85.50,79.56 86.72,77.65 87.95,75.84 89.17,74.13 90.40,72.52 91.62,71.00 92.85,69.58 94.08,68.26 95.30,67.04 96.53,65.92 97.75,64.89 98.97,63.96 100.20,63.13 101.42,62.40 102.65,61.76 103.88,61.22 105.10,60.78 106.33,60.44 107.55,60.20 108.78,60.05 110.00,60.00 111.22,59.95 112.45,59.80 113.68,59.56 114.90,59.22 116.12,58.78 117.35,58.24 118.57,57.60 119.80,56.87 121.03,56.04 122.25,55.11 123.47,54.08 124.70,52.96 125.93,51.74 127.15,50.42 128.38,49.00 129.60,47.48 130.82,45.87 132.05,44.16 133.28,42.35 134.50,40.44 135.72,38.44 136.95,36.33 138.18,34.13 139.40,31.84 140.62,29.44 141.85,26.95 143.07,24.36 144.30,21.67 145.53,18.88 146.75,19.87 147.97,21.16 149.20,22.34 150.43,23.43 151.65,24.43 152.88,25.32 154.10,26.11 155.32,26.81 156.55,27.41 157.78,27.91 159.00,28.32 160.22,28.63 161.45,28.83 162.68,28.95 163.90,28.96 165.12,28.87 166.35,28.69 167.57,28.41 168.80,28.03 170.03,27.56 171.25,26.99 172.47,26.31 173.70,25.55 174.93,24.68 176.15,23.71 177.38,22.65 178.60,21.49 179.82,20.23 181.05,18.88 182.28,19.17 183.50,19.75 184.72,20.24 185.95,20.62 187.18,20.91 188.40,21.10 189.62,21.20 190.85,21.19 192.07,21.09 193.30,20.89 194.53,20.59 195.75,20.20 196.97,19.70 198.20,19.11 199.43,18.71 200.65,18.99 201.88,19.18 203.10,19.26 204.32,19.25 205.55,19.14 206.78,18.93 208.00,18.62" fill="none" stroke="#3b82f6" stroke-width="2.2" stroke-linejoin="round" stroke-linecap="round"/>
  <circle cx="12.0" cy="101.4" r="2.6" fill="#ef4444"/>
  <circle cx="208.0" cy="18.6" r="2.6" fill="#ef4444"/>
</svg>
