<svg xmlns="http://www.w3.org/2000/svg" width="220" height="120" viewBox="0 0 220 120" role="img" aria-label="easeInOutElastic easing curve">
  <rect x="12.0" y="26.5" width="196.0" height="67.0" fill="none" stroke="#9ca3af" stroke-width="1" stroke-dasharray="3 3" opacity="0.7"/>
  <line x1="12.0" y1="93.5" x2="208.0" y2="93.5" stroke="#9ca3af" stroke-width="1" opacity="0.5"/>
  <polyline points="12.00,93.48 13.22,93.46 14.45,93.46 15.68,93.45 16.90,93.44 18.12,93.43 19.35,93.42 20.57,93.42 21.80,93.41 23.02,93.41 24.25,93.40 25.48,93.40 26.70,93.40 27.93,93.41 29.15,93.42 30.38,93.43 31.60,93.45 32.83,93.48 34.05,93.50 35.27,93.53 36.50,93.57 37.73,93.61 38.95,93.64 40.17,93.68 41.40,93.72 42.62,93.76 43.85,93.79 45.08,93.81 46.30,93.82 47.52,93.82 48.75,93.81 49.98,93.78 51.20,93.74 52.42,93.67 53.65,93.58 54.88,93.48 56.10,93.35 57.33,93.20 58.55,93.04 59.77,92.86 61.00,92.67 62.22,92.49 63.45,92.31 64.67,92.14 65.90,92.00 67.12,91.89 68.35,91.82 69.58,91.81 70.80,91.87 72.03,92.01 73.25,92.23 74.47,92.55 75.70,92.96 76.92,93.48 78.15,94.09 79.38,94.79 80.60,95.57 81.83,96.41 83.05,97.29 84.28,98.18 85.50,99.04 86.72,99.83 87.95,100.51 89.17,101.03 90.40,101.34 91.62,101.38 92.85,101.10 94.08,100.45 95.30,99.39 96.53,97.89 97.75,95.92 98.97,93.48 100.20,90.57 101.42,87.23 102.65,83.52 103.88,79.52 105.10,75.34 106.33,71.12 107.55,67.02 108.78,63.24 110.00,60.00 111.22,56.76 112.45,52.98 113.68,48.88 114.90,44.66 116.12,40.48 117.35,36.48 118.57,32.77 119.80,29.43 121.03,26.52 122.25,24.08 123.47,22.11 124.70,20.61 125.93,19.55 127.15,18.90 128.38,18.62 129.60,18.66 130.82,18.97 132.05,19.49 133.28,20.17 134.50,20.96 135.72,21.82 136.95,22.71 138.18,23.59 139.40,24.43 140.62,25.21 141.85,25.91 143.07,26.52 144.30,27.04 145.53,27.45 146.75,27.77 147.97,27.99 149.20,28.13 150.43,28.19 151.65,28.18 152.88,28.11 154.10,28.00 155.32,27.86 156.55,27.69 157.78,27.51 159.00,27.33 160.22,27.14 161.45,26.96 162.68,26.80 163.90,26.65 165.12,26.52 166.35,26.42 167.57,26.33 168.80,26.26 170.03,26.22 171.25,26.19 172.47,26.18 173.70,26.18 174.93,26.19 176.15,26.21 177.38,26.24 178.60,26.28 179.82,26.32 181.05,26.36 182.28,26.39 183.50,26.43 184.72,26.47 185.95,26.50 187.18,26.52 188.40,26.55 189.62,26.57 190.85,26.58 192.07,26.59 193.30,26.60 194.53,26.60 195.75,26.60 196.97,26.59 198.20,26.59 199.43,26.58 200.65,26.58 201.88,26.57 203.10,26.56 204.32,26.55 205.55,26.54 206.78,26.54 208.00,26.52" fill="none" stroke="#3b82f6" stroke-width="2.2" stroke-linejoin="round" stroke-linecap="round"/>
  <circle cx="12.0" cy="93.5" r="2.6" fill="#ef4444"/>
  <circle cx="208.0" cy="26.5" r="2.6" fill="#ef4444"/>
</svg>
