<svg xmlns="http://www.w3.org/2000/svg" width="220" height="120" viewBox="0 0 220 120" role="img" aria-label="easeInOutQuad easing curve">
  <rect x="12.0" y="18.6" width="196.0" height="82.8" fill="none" stroke="#9ca3af" stroke-width="1" stroke-dasharray="3 3" opacity="0.7"/>
  <line x1="12.0" y1="101.4" x2="208.0" y2="101.4" stroke="#9ca3af" stroke-width="1" opacity="0.5"/>
  <polyline points="12.00,101.38 13.22,101.37 14.45,101.35 15.68,101.32 16.90,101.28 18.12,101.22 19.35,101.15 20.57,101.06 21.80,100.97 23.02,100.86 24.25,100.73 25.48,100.60 26.70,100.45 27.93,100.29 29.15,100.11 30.38,99.92 31.60,99.72 32.83,99.51 34.05,99.28 35.27,99.05 36.50,98.79 37.73,98.53 38.95,98.25 40.17,97.96 41.40,97.66 42.62,97.34 43.85,97.01 45.08,96.67 46.30,96.31 47.52,95.94 48.75,95.56 49.98,95.17 51.20,94.76 52.42,94.34 53.65,93.91 54.88,93.46 56.10,93.00 57.33,92.53 58.55,92.04 59.77,91.55 61.00,91.03 62.22,90.51 63.45,89.97 64.67,89.42 65.90,88.86 67.12,88.29 68.35,87.70 69.58,87.10 70.80,86.48 72.03,85.86 73.25,85.22 74.47,84.56 75.70,83.90 76.92,83.22 78.15,82.53 79.38,81.82 80.60,81.10 81.83,80.37 83.05,79.63 84.28,78.87 85.50,78.10 86.72,77.32 87.95,76.53 89.17,75.72 90.40,74.90 91.62,74.06 92.85,73.22 94.08,72.36 95.30,71.48 96.53,70.60 97.75,69.70 98.97,68.79 100.20,67.86 101.42,66.92 102.65,65.97 103.88,65.01 105.10,64.03 106.33,63.05 107.55,62.04 108.78,61.03 110.00,60.00 111.22,58.97 112.45,57.96 113.68,56.95 114.90,55.97 116.12,54.99 117.35,54.03 118.57,53.08 119.80,52.14 121.03,51.21 122.25,50.30 123.47,49.40 124.70,48.52 125.93,47.64 127.15,46.78 128.38,45.94 129.60,45.10 130.82,44.28 132.05,43.47 133.28,42.68 134.50,41.90 135.72,41.13 136.95,40.37 138.18,39.63 139.40,38.90 140.62,38.18 141.85,37.47 143.07,36.78 144.30,36.10 145.53,35.44 146.75,34.78 147.97,34.14 149.20,33.52 150.43,32.90 151.65,32.30 152.88,31.71 154.10,31.14 155.32,30.58 156.55,30.03 157.78,29.49 159.00,28.97 160.22,28.45 161.45,27.96 162.68,27.47 163.90,27.00 165.12,26.54 166.35,26.09 167.57,25.66 168.80,25.24 170.03,24.83 171.25,24.44 172.47,24.06 173.70,23.69 174.93,23.33 176.15,22.99 177.38,22.66 178.60,22.34 179.82,22.04 181.05,21.75 182.28,21.47 183.50,21.21 184.72,20.95 185.95,20.72 187.18,20.49 188.40,20.28 189.62,20.08 190.85,19.89 192.07,19.71 193.30,19.55 194.53,19.40 195.75,19.27 196.97,19.14 198.20,19.03 199.43,18.94 200.65,18.85 201.88,18.78 203.10,18.72 204.32,18.68 205.55,18.65 206.78,18.63 208.00,18.62" fill="none" stroke="#3b82f6" stroke-width="2.2" stroke-linejoin="round" stroke-linecap="round"/>
  <circle cx="12.0" cy="101.4" r="2.6" fill="#ef4444"/>
  <circle cx="208.0" cy="18.6" r="2.6" fill="#ef4444"/>
</svg>
