<svg xmlns="http://www.w3.org/2000/svg" width="220" height="120" viewBox="0 0 220 120" role="img" aria-label="easeInCubic easing curve">
  <rect x="12.0" y="18.6" width="196.0" height="82.8" fill="none" stroke="#9ca3af" stroke-width="1" stroke-dasharray="3 3" opacity="0.7"/>
  <line x1="12.0" y1="101.4" x2="208.0" y2="101.4" stroke="#9ca3af" stroke-width="1" opacity="0.5"/>
  <polyline points="12.00,101.38 13.22,101.38 14.45,101.38 15.68,101.38 16.90,101.38 18.12,101.38 19.35,101.37 20.57,101.37 21.80,101.37 23.02,101.36 24.25,101.36 25.48,101.35 26.70,101.34 27.93,101.33 29.15,101.32 30.38,101.31 31.60,101.30 32.83,101.28 34.05,101.26 35.27,101.24 36.50,101.22 37.73,101.19 38.95,101.16 40.17,101.13 41.40,101.10 42.62,101.06 43.85,101.02 45.08,100.98 46.30,100.94 47.52,100.89 48.75,100.83 49.98,100.78 51.20,100.72 52.42,100.65 53.65,100.59 54.88,100.51 56.10,100.44 57.33,100.36 58.55,100.27 59.77,100.18 61.00,100.09 62.22,99.99 63.45,99.88 64.67,99.77 65.90,99.66 67.12,99.54 68.35,99.41 69.58,99.28 70.80,99.14 72.03,99.00 73.25,98.85 74.47,98.70 75.70,98.54 76.92,98.37 78.15,98.20 79.38,98.02 80.60,97.83 81.83,97.64 83.05,97.44 84.28,97.23 85.50,97.02 86.72,96.79 87.95,96.56 89.17,96.33 90.40,96.08 91.62,95.83 92.85,95.57 94.08,95.30 95.30,95.03 96.53,94.74 97.75,94.45 98.97,94.15 100.20,93.84 101.42,93.52 102.65,93.19 103.88,92.86 105.10,92.51 106.33,92.16 107.55,91.79 108.78,91.42 110.00,91.03 111.22,90.64 112.45,90.24 113.68,89.83 114.90,89.40 116.12,88.97 117.35,88.53 118.57,88.07 119.80,87.61 121.03,87.14 122.25,86.65 123.47,86.15 124.70,85.65 125.93,85.13 127.15,84.60 128.38,84.06 129.60,83.50 130.82,82.94 132.05,82.36 133.28,81.77 134.50,81.17 135.72,80.56 136.95,79.94 138.18,79.30 139.40,78.65 140.62,77.99 141.85,77.32 143.07,76.63 144.30,75.93 145.53,75.21 146.75,74.49 147.97,73.75 149.20,72.99 150.43,72.23 151.65,71.45 152.88,70.65 154.10,69.84 155.32,69.02 156.55,68.18 157.78,67.33 159.00,66.47 160.22,65.59 161.45,64.69 162.68,63.78 163.90,62.86 165.12,61.92 166.35,60.96 167.57,59.99 168.80,59.01 170.03,58.01 171.25,56.99 172.47,55.96 173.70,54.91 174.93,53.84 176.15,52.76 177.38,51.67 178.60,50.56 179.82,49.43 181.05,48.28 182.28,47.12 183.50,45.94 184.72,44.74 185.95,43.53 187.18,42.30 188.40,41.05 189.62,39.78 190.85,38.50 192.07,37.20 193.30,35.88 194.53,34.54 195.75,33.19 196.97,31.82 198.20,30.42 199.43,29.01 200.65,27.59 201.88,26.14 203.10,24.67 204.32,23.19 205.55,21.69 206.78,20.16 208.00,18.62" fill="none" stroke="#3b82f6" stroke-width="2.2" stroke-linejoin="round" stroke-linecap="round"/>
  <circle cx="12.0" cy="101.4" r="2.6" fill="#ef4444"/>
  <circle cx="208.0" cy="18.6" r="2.6" fill="#ef4444"/>
</svg>
