<svg xmlns="http://www.w3.org/2000/svg" width="220" height="120" viewBox="0 0 220 120" role="img" aria-label="easeInOutCirc easing curve">
  <rect x="12.0" y="18.6" width="196.0" height="82.8" fill="none" stroke="#9ca3af" stroke-width="1" stroke-dasharray="3 3" opacity="0.7"/>
  <line x1="12.0" y1="101.4" x2="208.0" y2="101.4" stroke="#9ca3af" stroke-width="1" opacity="0.5"/>
  <polyline points="12.00,101.38 13.22,101.38 14.45,101.37 15.68,101.35 16.90,101.33 18.12,101.30 19.35,101.26 20.57,101.22 21.80,101.17 23.02,101.12 24.25,101.05 25.48,100.99 26.70,100.91 27.93,100.83 29.15,100.74 30.38,100.65 31.60,100.54 32.83,100.43 34.05,100.32 35.27,100.20 36.50,100.07 37.73,99.93 38.95,99.78 40.17,99.63 41.40,99.47 42.62,99.31 43.85,99.13 45.08,98.95 46.30,98.76 47.52,98.56 48.75,98.36 49.98,98.15 51.20,97.92 52.42,97.69 53.65,97.46 54.88,97.21 56.10,96.95 57.33,96.69 58.55,96.41 59.77,96.13 61.00,95.84 62.22,95.53 63.45,95.22 64.67,94.89 65.90,94.56 67.12,94.21 68.35,93.85 69.58,93.49 70.80,93.10 72.03,92.71 73.25,92.30 74.47,91.88 75.70,91.45 76.92,91.00 78.15,90.53 79.38,90.05 80.60,89.55 81.83,89.03 83.05,88.50 84.28,87.95 85.50,87.37 86.72,86.77 87.95,86.15 89.17,85.50 90.40,84.83 91.62,84.12 92.85,83.38 94.08,82.61 95.30,81.80 96.53,80.94 97.75,80.03 98.97,79.07 100.20,78.04 101.42,76.93 102.65,75.72 103.88,74.40 105.10,72.92 106.33,71.23 107.55,69.19 108.78,66.52 110.00,60.00 111.22,53.48 112.45,50.81 113.68,48.77 114.90,47.08 116.12,45.60 117.35,44.28 118.57,43.07 119.80,41.96 121.03,40.93 122.25,39.97 123.47,39.06 124.70,38.20 125.93,37.39 127.15,36.62 128.38,35.88 129.60,35.17 130.82,34.50 132.05,33.85 133.28,33.23 134.50,32.63 135.72,32.05 136.95,31.50 138.18,30.97 139.40,30.45 140.62,29.95 141.85,29.47 143.07,29.00 144.30,28.55 145.53,28.12 146.75,27.70 147.97,27.29 149.20,26.90 150.43,26.51 151.65,26.15 152.88,25.79 154.10,25.44 155.32,25.11 156.55,24.78 157.78,24.47 159.00,24.16 160.22,23.87 161.45,23.59 162.68,23.31 163.90,23.05 165.12,22.79 166.35,22.54 167.57,22.31 168.80,22.08 170.03,21.85 171.25,21.64 172.47,21.44 173.70,21.24 174.93,21.05 176.15,20.87 177.38,20.69 178.60,20.53 179.82,20.37 181.05,20.22 182.28,20.07 183.50,19.93 184.72,19.80 185.95,19.68 187.18,19.57 188.40,19.46 189.62,19.35 190.85,19.26 192.07,19.17 193.30,19.09 194.53,19.01 195.75,18.95 196.97,18.88 198.20,18.83 199.43,18.78 200.65,18.74 201.88,18.70 203.10,18.67 204.32,18.65 205.55,18.63 206.78,18.62 208.00,18.62" fill="none" stroke="#3b82f6" stroke-width="2.2" stroke-linejoin="round" stroke-linecap="round"/>
  <circle cx="12.0" cy="101.4" r="2.6" fill="#ef4444"/>
  <circle cx="208.0" cy="18.6" r="2.6" fill="#ef4444"/>
</svg>
