<svg xmlns="http://www.w3.org/2000/svg" width="220" height="120" viewBox="0 0 220 120" role="img" aria-label="easeOutCirc easing curve">
  <rect x="12.0" y="18.6" width="196.0" height="82.8" fill="none" stroke="#9ca3af" stroke-width="1" stroke-dasharray="3 3" opacity="0.7"/>
  <line x1="12.0" y1="101.4" x2="208.0" y2="101.4" stroke="#9ca3af" stroke-width="1" opacity="0.5"/>
  <polyline points="12.00,101.38 13.22,92.14 14.45,88.33 15.68,85.43 16.90,82.99 18.12,80.85 19.35,78.93 20.57,77.17 21.80,75.54 23.02,74.01 24.25,72.58 25.48,71.22 26.70,69.93 27.93,68.70 29.15,67.52 30.38,66.39 31.60,65.31 32.83,64.26 34.05,63.24 35.27,62.26 36.50,61.31 37.73,60.39 38.95,59.50 40.17,58.63 41.40,57.78 42.62,56.96 43.85,56.16 45.08,55.37 46.30,54.61 47.52,53.86 48.75,53.13 49.98,52.42 51.20,51.72 52.42,51.04 53.65,50.37 54.88,49.72 56.10,49.08 57.33,48.45 58.55,47.84 59.77,47.23 61.00,46.64 62.22,46.06 63.45,45.49 64.67,44.93 65.90,44.38 67.12,43.84 68.35,43.31 69.58,42.79 70.80,42.28 72.03,41.78 73.25,41.28 74.47,40.80 75.70,40.32 76.92,39.85 78.15,39.39 79.38,38.93 80.60,38.49 81.83,38.05 83.05,37.62 84.28,37.19 85.50,36.78 86.72,36.37 87.95,35.96 89.17,35.56 90.40,35.17 91.62,34.79 92.85,34.41 94.08,34.04 95.30,33.67 96.53,33.31 97.75,32.95 98.97,32.61 100.20,32.26 101.42,31.92 102.65,31.59 103.88,31.26 105.10,30.94 106.33,30.63 107.55,30.32 108.78,30.01 110.00,29.71 111.22,29.41 112.45,29.12 113.68,28.83 114.90,28.55 116.12,28.28 117.35,28.00 118.57,27.74 119.80,27.47 121.03,27.22 122.25,26.96 123.47,26.71 124.70,26.47 125.93,26.23 127.15,25.99 128.38,25.76 129.60,25.53 130.82,25.31 132.05,25.09 133.28,24.87 134.50,24.66 135.72,24.45 136.95,24.25 138.18,24.05 139.40,23.86 140.62,23.66 141.85,23.48 143.07,23.29 144.30,23.11 145.53,22.94 146.75,22.77 147.97,22.60 149.20,22.43 150.43,22.27 151.65,22.11 152.88,21.96 154.10,21.81 155.32,21.67 156.55,21.52 157.78,21.38 159.00,21.25 160.22,21.12 161.45,20.99 162.68,20.86 163.90,20.74 165.12,20.63 166.35,20.51 167.57,20.40 168.80,20.29 170.03,20.19 171.25,20.09 172.47,19.99 173.70,19.90 174.93,19.81 176.15,19.72 177.38,19.64 178.60,19.56 179.82,19.48 181.05,19.41 182.28,19.34 183.50,19.27 184.72,19.21 185.95,19.15 187.18,19.09 188.40,19.04 189.62,18.99 190.85,18.94 192.07,18.89 193.30,18.85 194.53,18.82 195.75,18.78 196.97,18.75 198.20,18.72 199.43,18.70 200.65,18.68 201.88,18.66 203.10,18.65 204.32,18.64 205.55,18.63 206.78,18.62 208.00,18.62" fill="none" stroke="#3b82f6" stroke-width="2.2" stroke-linejoin="round" stroke-linecap="round"/>
  <circle cx="12.0" cy="101.4" r="2.6" fill="#ef4444"/>
  <circle cx="208.0" cy="18.6" r="2.6" fill="#ef4444"/>
</svg>
