<svg xmlns="http://www.w3.org/2000/svg" width="220" height="120" viewBox="0 0 220 120" role="img" aria-label="easeInQuart easing curve">
  <rect x="12.0" y="18.6" width="196.0" height="82.8" fill="none" stroke="#9ca3af" stroke-width="1" stroke-dasharray="3 3" opacity="0.7"/>
  <line x1="12.0" y1="101.4" x2="208.0" y2="101.4" stroke="#9ca3af" stroke-width="1" opacity="0.5"/>
  <polyline points="12.00,101.38 13.22,101.38 14.45,101.38 15.68,101.38 16.90,101.38 18.12,101.38 19.35,101.38 20.57,101.38 21.80,101.38 23.02,101.38 24.25,101.38 25.48,101.38 26.70,101.38 27.93,101.38 29.15,101.37 30.38,101.37 31.60,101.37 32.83,101.37 34.05,101.37 35.27,101.36 36.50,101.36 37.73,101.35 38.95,101.35 40.17,101.34 41.40,101.34 42.62,101.33 43.85,101.32 45.08,101.31 46.30,101.30 47.52,101.29 48.75,101.28 49.98,101.26 51.20,101.25 52.42,101.23 53.65,101.21 54.88,101.19 56.10,101.17 57.33,101.14 58.55,101.12 59.77,101.09 61.00,101.06 62.22,101.02 63.45,100.99 64.67,100.95 65.90,100.91 67.12,100.86 68.35,100.81 69.58,100.76 70.80,100.71 72.03,100.65 73.25,100.59 74.47,100.52 75.70,100.46 76.92,100.38 78.15,100.31 79.38,100.22 80.60,100.14 81.83,100.05 83.05,99.95 84.28,99.85 85.50,99.74 86.72,99.63 87.95,99.51 89.17,99.39 90.40,99.26 91.62,99.13 92.85,98.98 94.08,98.83 95.30,98.68 96.53,98.52 97.75,98.35 98.97,98.17 100.20,97.99 101.42,97.79 102.65,97.59 103.88,97.38 105.10,97.17 106.33,96.94 107.55,96.71 108.78,96.46 110.00,96.21 111.22,95.94 112.45,95.67 113.68,95.39 114.90,95.09 116.12,94.79 117.35,94.47 118.57,94.14 119.80,93.81 121.03,93.46 122.25,93.09 123.47,92.72 124.70,92.33 125.93,91.93 127.15,91.52 128.38,91.09 129.60,90.65 130.82,90.20 132.05,89.73 133.28,89.25 134.50,88.75 135.72,88.24 136.95,87.71 138.18,87.17 139.40,86.61 140.62,86.03 141.85,85.44 143.07,84.83 144.30,84.20 145.53,83.55 146.75,82.89 147.97,82.21 149.20,81.51 150.43,80.79 151.65,80.05 152.88,79.29 154.10,78.51 155.32,77.72 156.55,76.90 157.78,76.06 159.00,75.19 160.22,74.31 161.45,73.40 162.68,72.48 163.90,71.52 165.12,70.55 166.35,69.55 167.57,68.53 168.80,67.48 170.03,66.41 171.25,65.31 172.47,64.19 173.70,63.04 174.93,61.87 176.15,60.66 177.38,59.44 178.60,58.18 179.82,56.89 181.05,55.58 182.28,54.24 183.50,52.87 184.72,51.47 185.95,50.04 187.18,48.57 188.40,47.08 189.62,45.56 190.85,44.00 192.07,42.41 193.30,40.79 194.53,39.14 195.75,37.45 196.97,35.73 198.20,33.97 199.43,32.18 200.65,30.35 201.88,28.49 203.10,26.59 204.32,24.66 205.55,22.68 206.78,20.67 208.00,18.62" fill="none" stroke="#3b82f6" stroke-width="2.2" stroke-linejoin="round" stroke-linecap="round"/>
  <circle cx="12.0" cy="101.4" r="2.6" fill="#ef4444"/>
  <circle cx="208.0" cy="18.6" r="2.6" fill="#ef4444"/>
</svg>
