<svg xmlns="http://www.w3.org/2000/svg" width="220" height="120" viewBox="0 0 220 120" role="img" aria-label="linear easing curve">
  <rect x="12.0" y="18.6" width="196.0" height="82.8" fill="none" stroke="#9ca3af" stroke-width="1" stroke-dasharray="3 3" opacity="0.7"/>
  <line x1="12.0" y1="101.4" x2="208.0" y2="101.4" stroke="#9ca3af" stroke-width="1" opacity="0.5"/>
  <polyline points="12.00,101.38 13.22,100.86 14.45,100.34 15.68,99.83 16.90,99.31 18.12,98.79 19.35,98.28 20.57,97.76 21.80,97.24 23.02,96.72 24.25,96.21 25.48,95.69 26.70,95.17 27.93,94.66 29.15,94.14 30.38,93.62 31.60,93.10 32.83,92.59 34.05,92.07 35.27,91.55 36.50,91.03 37.73,90.52 38.95,90.00 40.17,89.48 41.40,88.97 42.62,88.45 43.85,87.93 45.08,87.41 46.30,86.90 47.52,86.38 48.75,85.86 49.98,85.34 51.20,84.83 52.42,84.31 53.65,83.79 54.88,83.28 56.10,82.76 57.33,82.24 58.55,81.72 59.77,81.21 61.00,80.69 62.22,80.17 63.45,79.66 64.67,79.14 65.90,78.62 67.12,78.10 68.35,77.59 69.58,77.07 70.80,76.55 72.03,76.03 73.25,75.52 74.47,75.00 75.70,74.48 76.92,73.97 78.15,73.45 79.38,72.93 80.60,72.41 81.83,71.90 83.05,71.38 84.28,70.86 85.50,70.34 86.72,69.83 87.95,69.31 89.17,68.79 90.40,68.28 91.62,67.76 92.85,67.24 94.08,66.72 95.30,66.21 96.53,65.69 97.75,65.17 98.97,64.66 100.20,64.14 101.42,63.62 102.65,63.10 103.88,62.59 105.10,62.07 106.33,61.55 107.55,61.03 108.78,60.52 110.00,60.00 111.22,59.48 112.45,58.97 113.68,58.45 114.90,57.93 116.12,57.41 117.35,56.90 118.57,56.38 119.80,55.86 121.03,55.34 122.25,54.83 123.47,54.31 124.70,53.79 125.93,53.28 127.15,52.76 128.38,52.24 129.60,51.72 130.82,51.21 132.05,50.69 133.28,50.17 134.50,49.66 135.72,49.14 136.95,48.62 138.18,48.10 139.40,47.59 140.62,47.07 141.85,46.55 143.07,46.03 144.30,45.52 145.53,45.00 146.75,44.48 147.97,43.97 149.20,43.45 150.43,42.93 151.65,42.41 152.88,41.90 154.10,41.38 155.32,40.86 156.55,40.34 157.78,39.83 159.00,39.31 160.22,38.79 161.45,38.28 162.68,37.76 163.90,37.24 165.12,36.72 166.35,36.21 167.57,35.69 168.80,35.17 170.03,34.66 171.25,34.14 172.47,33.62 173.70,33.10 174.93,32.59 176.15,32.07 177.38,31.55 178.60,31.03 179.82,30.52 181.05,30.00 182.28,29.48 183.50,28.97 184.72,28.45 185.95,27.93 187.18,27.41 188.40,26.90 189.62,26.38 190.85,25.86 192.07,25.34 193.30,24.83 194.53,24.31 195.75,23.79 196.97,23.28 198.20,22.76 199.43,22.24 200.65,21.72 201.88,21.21 203.10,20.69 204.32,20.17 205.55,19.66 206.78,19.14 208.00,18.62" fill="none" stroke="#3b82f6" stroke-width="2.2" stroke-linejoin="round" stroke-linecap="round"/>
  <circle cx="12.0" cy="101.4" r="2.6" fill="#ef4444"/>
  <circle cx="208.0" cy="18.6" r="2.6" fill="#ef4444"/>
</svg>
