<svg xmlns="http://www.w3.org/2000/svg" width="220" height="120" viewBox="0 0 220 120" role="img" aria-label="sineStairs easing curve">
  <rect x="12.0" y="18.6" width="196.0" height="82.8" fill="none" stroke="#9ca3af" stroke-width="1" stroke-dasharray="3 3" opacity="0.7"/>
  <line x1="12.0" y1="101.4" x2="208.0" y2="101.4" stroke="#9ca3af" stroke-width="1" opacity="0.5"/>
  <polyline points="12.00,101.38 13.22,101.38 14.45,101.37 15.68,101.35 16.90,101.30 18.12,101.23 19.35,101.13 20.57,100.98 21.80,100.79 23.02,100.55 24.25,100.26 25.48,99.92 26.70,99.51 27.93,99.04 29.15,98.51 30.38,97.93 31.60,97.28 32.83,96.57 34.05,95.81 35.27,95.00 36.50,94.14 37.73,93.24 38.95,92.29 40.17,91.32 41.40,90.32 42.62,89.30 43.85,88.28 45.08,87.24 46.30,86.21 47.52,85.19 48.75,84.18 49.98,83.20 51.20,82.25 52.42,81.33 53.65,80.45 54.88,79.63 56.10,78.85 57.33,78.12 58.55,77.45 59.77,76.85 61.00,76.30 62.22,75.81 63.45,75.39 64.67,75.02 65.90,74.71 67.12,74.45 68.35,74.25 69.58,74.09 70.80,73.97 72.03,73.89 73.25,73.84 74.47,73.81 75.70,73.80 76.92,73.79 78.15,73.79 79.38,73.79 80.60,73.77 81.83,73.73 83.05,73.67 84.28,73.58 85.50,73.45 86.72,73.28 87.95,73.05 89.17,72.78 90.40,72.45 91.62,72.06 92.85,71.62 94.08,71.11 95.30,70.54 96.53,69.92 97.75,69.23 98.97,68.49 100.20,67.69 101.42,66.84 102.65,65.95 103.88,65.03 105.10,64.06 106.33,63.07 107.55,62.06 108.78,61.03 110.00,60.00 111.22,58.97 112.45,57.94 113.68,56.93 114.90,55.94 116.12,54.97 117.35,54.05 118.57,53.16 119.80,52.31 121.03,51.51 122.25,50.77 123.47,50.08 124.70,49.46 125.93,48.89 127.15,48.38 128.38,47.94 129.60,47.55 130.82,47.22 132.05,46.95 133.28,46.72 134.50,46.55 135.72,46.42 136.95,46.33 138.18,46.27 139.40,46.23 140.62,46.21 141.85,46.21 143.07,46.21 144.30,46.20 145.53,46.19 146.75,46.16 147.97,46.11 149.20,46.03 150.43,45.91 151.65,45.75 152.88,45.55 154.10,45.29 155.32,44.98 156.55,44.61 157.78,44.19 159.00,43.70 160.22,43.15 161.45,42.55 162.68,41.88 163.90,41.15 165.12,40.37 166.35,39.55 167.57,38.67 168.80,37.75 170.03,36.80 171.25,35.82 172.47,34.81 173.70,33.79 174.93,32.76 176.15,31.72 177.38,30.70 178.60,29.68 179.82,28.68 181.05,27.71 182.28,26.76 183.50,25.86 184.72,25.00 185.95,24.19 187.18,23.43 188.40,22.72 189.62,22.07 190.85,21.49 192.07,20.96 193.30,20.49 194.53,20.08 195.75,19.74 196.97,19.45 198.20,19.21 199.43,19.02 200.65,18.87 201.88,18.77 203.10,18.70 204.32,18.65 205.55,18.63 206.78,18.62 208.00,18.62" fill="none" stroke="#3b82f6" stroke-width="2.2" stroke-linejoin="round" stroke-linecap="round"/>
  <circle cx="12.0" cy="101.4" r="2.6" fill="#ef4444"/>
  <circle cx="208.0" cy="18.6" r="2.6" fill="#ef4444"/>
</svg>
