<svg xmlns="http://www.w3.org/2000/svg" width="220" height="120" viewBox="0 0 220 120" role="img" aria-label="sineWave easing curve">
  <rect x="12.0" y="18.6" width="196.0" height="82.8" fill="none" stroke="#9ca3af" stroke-width="1" stroke-dasharray="3 3" opacity="0.7"/>
  <line x1="12.0" y1="101.4" x2="208.0" y2="101.4" stroke="#9ca3af" stroke-width="1" opacity="0.5"/>
  <polyline points="12.00,101.38 13.22,101.09 14.45,100.24 15.68,98.82 16.90,96.87 18.12,94.41 19.35,91.47 20.57,88.09 21.80,84.32 23.02,80.22 24.25,75.84 25.48,71.23 26.70,66.47 27.93,61.62 29.15,56.75 30.38,51.93 31.60,47.21 32.83,42.68 34.05,38.38 35.27,34.38 36.50,30.74 37.73,27.50 38.95,24.72 40.17,22.42 41.40,20.65 42.62,19.42 43.85,18.75 45.08,18.65 46.30,19.13 47.52,20.17 48.75,21.77 49.98,23.90 51.20,26.52 52.42,29.61 53.65,33.13 54.88,37.01 56.10,41.21 57.33,45.68 58.55,50.34 59.77,55.14 61.00,60.00 62.22,64.86 63.45,69.66 64.67,74.32 65.90,78.79 67.12,82.99 68.35,86.87 69.58,90.39 70.80,93.48 72.03,96.10 73.25,98.23 74.47,99.83 75.70,100.87 76.92,101.35 78.15,101.25 79.38,100.58 80.60,99.35 81.83,97.58 83.05,95.28 84.28,92.50 85.50,89.26 86.72,85.62 87.95,81.62 89.17,77.32 90.40,72.79 91.62,68.07 92.85,63.25 94.08,58.38 95.30,53.53 96.53,48.77 97.75,44.16 98.97,39.78 100.20,35.68 101.42,31.91 102.65,28.53 103.88,25.59 105.10,23.13 106.33,21.18 107.55,19.76 108.78,18.91 110.00,18.62 111.22,18.91 112.45,19.76 113.68,21.18 114.90,23.13 116.12,25.59 117.35,28.53 118.57,31.91 119.80,35.68 121.03,39.78 122.25,44.16 123.47,48.77 124.70,53.53 125.93,58.38 127.15,63.25 128.38,68.07 129.60,72.79 130.82,77.32 132.05,81.62 133.28,85.62 134.50,89.26 135.72,92.50 136.95,95.28 138.18,97.58 139.40,99.35 140.62,100.58 141.85,101.25 143.07,101.35 144.30,100.87 145.53,99.83 146.75,98.23 147.97,96.10 149.20,93.48 150.43,90.39 151.65,86.87 152.88,82.99 154.10,78.79 155.32,74.32 156.55,69.66 157.78,64.86 159.00,60.00 160.22,55.14 161.45,50.34 162.68,45.68 163.90,41.21 165.12,37.01 166.35,33.13 167.57,29.61 168.80,26.52 170.03,23.90 171.25,21.77 172.47,20.17 173.70,19.13 174.93,18.65 176.15,18.75 177.38,19.42 178.60,20.65 179.82,22.42 181.05,24.72 182.28,27.50 183.50,30.74 184.72,34.38 185.95,38.38 187.18,42.68 188.40,47.21 189.62,51.93 190.85,56.75 192.07,61.62 193.30,66.47 194.53,71.23 195.75,75.84 196.97,80.22 198.20,84.32 199.43,88.09 200.65,91.47 201.88,94.41 203.10,96.87 204.32,98.82 205.55,100.24 206.78,101.09 208.00,101.38" fill="none" stroke="#3b82f6" stroke-width="2.2" stroke-linejoin="round" stroke-linecap="round"/>
  <circle cx="12.0" cy="101.4" r="2.6" fill="#ef4444"/>
  <circle cx="208.0" cy="101.4" r="2.6" fill="#ef4444"/>
</svg>
